<svg width="52" height="52" viewBox="0 0 52 52" fill="none" xmlns="http://www.w3.org/2000/svg">
<path d="M45.5647 10.7853C45.5621 10.7678 45.5504 10.7538 45.5472 10.7365C45.5275 10.6554 45.5013 10.5846 45.4682 10.5179L45.4709 10.5238C45.4465 10.4571 45.4192 10.4002 45.3873 10.3465L45.39 10.3513C45.3433 10.2883 45.2924 10.233 45.2362 10.1838L45.2349 10.1827C45.2029 10.1425 45.1698 10.1065 45.1344 10.0731L45.1338 10.0726L45.1004 10.0573C45.0375 10.0193 44.9649 9.98564 44.8884 9.96055L44.8809 9.95844C44.8331 9.93541 44.7763 9.9139 44.7175 9.89723L44.7098 9.89535L44.6695 9.88047L26.1627 7.01255C26.1137 7.00448 26.0574 7 26 7C25.9426 7 25.8863 7.00448 25.8313 7.01335L25.8374 7.01255L7.29221 9.89409C7.21524 9.9139 7.14828 9.93935 7.08506 9.97117L7.09093 9.96848C7.01739 9.99429 6.95426 10.0241 6.89486 10.0596L6.89975 10.0569L6.86621 10.0723C6.83124 10.1055 6.79903 10.1406 6.76922 10.1778L6.76771 10.1798C6.70898 10.2311 6.6571 10.2875 6.61172 10.3491L6.60972 10.3519C6.58067 10.4007 6.55353 10.4576 6.53159 10.517L6.52919 10.5243C6.49916 10.5841 6.47327 10.654 6.45507 10.7268L6.45356 10.734C6.44986 10.752 6.4379 10.7669 6.43514 10.7851L5.01143 20.4643C5.00414 20.5115 5 20.5659 5 20.6213C5 21.1392 5.36318 21.5716 5.84697 21.6744L5.85395 21.6756L7.91076 22.0997C7.87561 22.1928 7.85283 22.3006 7.84758 22.4129V40.3404C7.84758 40.8564 8.20854 41.2875 8.69002 41.3915L8.697 41.3927L25.7814 44.9776C25.8471 44.9918 25.9225 45 25.9997 45C26.0769 45 26.1523 44.9918 26.2251 44.9763L26.2179 44.9776L43.301 41.3926C43.7901 41.2875 44.1516 40.8561 44.1519 40.3396V22.415C44.1466 22.3004 44.1239 22.1927 44.0863 22.0924L44.0887 22.0996L46.1457 21.6758C46.6365 21.5729 47 21.1408 47 20.6233C47 20.5673 46.9957 20.5122 46.9875 20.4584L46.9883 20.4645L45.5647 10.7853ZM25.9999 9.16367L37.8897 11.0059L25.9999 13.0792L14.111 11.0059L25.9999 9.16367ZM8.38712 12.1913L24.4677 14.9948L21.1017 22.6226L7.27205 19.7727L8.38712 12.1913ZM9.98323 22.5266L21.5146 24.9023C21.5803 24.9169 21.6557 24.9252 21.7331 24.9252C22.1648 24.9252 22.5363 24.6656 22.7021 24.2929L22.7049 24.2861L24.9321 19.2381V42.6028L9.98323 39.466V22.5266ZM42.0165 39.466L27.0677 42.6028V19.2381L29.295 24.2861C29.4663 24.6649 29.8385 24.9237 30.2709 24.9247H30.2714C30.3471 24.9247 30.4209 24.9165 30.4919 24.901L30.4851 24.9023L42.0165 22.5266V39.466ZM30.8994 22.6227L27.5321 14.9949L43.6127 12.1913L44.7277 19.7728L30.8994 22.6227Z" fill="#777777"/>
</svg>
