<svg width="16" height="17" viewBox="0 0 16 17" fill="none" xmlns="http://www.w3.org/2000/svg">
<path fill-rule="evenodd" clip-rule="evenodd" d="M8.99634 3.37719C8.99634 2.83718 8.55857 2.39941 8.01856 2.39941C7.47855 2.39941 7.04078 2.83718 7.04078 3.37719V7.28955H3.12988C2.58987 7.28955 2.1521 7.72732 2.1521 8.26733C2.1521 8.80734 2.58987 9.24511 3.12988 9.24511H7.04078V13.155C7.04078 13.695 7.47855 14.1327 8.01856 14.1327C8.55857 14.1327 8.99634 13.695 8.99634 13.155V9.24511H12.9077C13.4477 9.24511 13.8854 8.80734 13.8854 8.26733C13.8854 7.72732 13.4477 7.28955 12.9077 7.28955H8.99634V3.37719Z" fill="#555555"/>
</svg>
