<svg width="18" height="18" viewBox="0 0 18 18" fill="none" xmlns="http://www.w3.org/2000/svg">
<path fill-rule="evenodd" clip-rule="evenodd" d="M11 1.5L11.313 1.50011C11.2719 1.65988 11.25 1.82739 11.25 2V2.24999H11C9.89543 2.24999 9 3.14543 9 4.24999C9 5.35456 9.89543 6.24999 11 6.24999H11.25V6.5C11.25 7.60456 12.1454 8.5 13.25 8.5C14.003 8.5 14.6588 8.08385 15 7.469V12.5C15 14.3856 15 15.3284 14.4142 15.9142C13.8284 16.5 12.8856 16.5 11 16.5H7C5.11438 16.5 4.17157 16.5 3.58579 15.9142C3 15.3284 3 14.3856 3 12.5V5.5C3 3.61438 3 2.67157 3.58579 2.08579C4.17157 1.5 5.11438 1.5 7 1.5H11ZM6 8.5C5.72386 8.5 5.5 8.72386 5.5 9C5.5 9.27614 5.72386 9.5 6 9.5H9C9.27614 9.5 9.5 9.27614 9.5 9C9.5 8.72386 9.27614 8.5 9 8.5H6ZM6 10.75C5.72386 10.75 5.5 10.9739 5.5 11.25C5.5 11.5261 5.72386 11.75 6 11.75H10.5C10.7761 11.75 11 11.5261 11 11.25C11 10.9739 10.7761 10.75 10.5 10.75H6ZM6 13C5.72386 13 5.5 13.2239 5.5 13.5C5.5 13.7761 5.72386 14 6 14H9C9.27614 14 9.5 13.7761 9.5 13.5C9.5 13.2239 9.27614 13 9 13H6Z" fill="#0096FF"/>
<path fill-rule="evenodd" clip-rule="evenodd" d="M13.5 1.5C13.9142 1.5 14.25 1.83579 14.25 2.25L14.25 6.75C14.25 7.16421 13.9142 7.5 13.5 7.5C13.0858 7.5 12.75 7.16421 12.75 6.75L12.75 2.25C12.75 1.83579 13.0858 1.5 13.5 1.5Z" fill="#0096FF"/>
<path fill-rule="evenodd" clip-rule="evenodd" d="M16.5 4.5C16.5 4.91421 16.1642 5.25 15.75 5.25L11.25 5.25C10.8358 5.25 10.5 4.91421 10.5 4.5C10.5 4.08579 10.8358 3.75 11.25 3.75L15.75 3.75C16.1642 3.75 16.5 4.08579 16.5 4.5Z" fill="#0096FF"/>
</svg>
