<svg width="18" height="19" viewBox="0 0 18 19" fill="none" xmlns="http://www.w3.org/2000/svg">
<path d="M6.75 7.96484C5.925 7.96484 5.25 8.63984 5.25 9.46484C5.25 10.2898 5.925 10.9648 6.75 10.9648C7.575 10.9648 8.25 10.2898 8.25 9.46484C8.25 8.63984 7.575 7.96484 6.75 7.96484ZM6.75 3.46484C5.925 3.46484 5.25 4.13984 5.25 4.96484C5.25 5.78984 5.925 6.46484 6.75 6.46484C7.575 6.46484 8.25 5.78984 8.25 4.96484C8.25 4.13984 7.575 3.46484 6.75 3.46484ZM6.75 12.4648C5.925 12.4648 5.25 13.1398 5.25 13.9648C5.25 14.7898 5.925 15.4648 6.75 15.4648C7.575 15.4648 8.25 14.7898 8.25 13.9648C8.25 13.1398 7.575 12.4648 6.75 12.4648Z" fill="#A5A5A5"/>
<path d="M11.25 7.96484C10.425 7.96484 9.75 8.63984 9.75 9.46484C9.75 10.2898 10.425 10.9648 11.25 10.9648C12.075 10.9648 12.75 10.2898 12.75 9.46484C12.75 8.63984 12.075 7.96484 11.25 7.96484ZM11.25 3.46484C10.425 3.46484 9.75 4.13984 9.75 4.96484C9.75 5.78984 10.425 6.46484 11.25 6.46484C12.075 6.46484 12.75 5.78984 12.75 4.96484C12.75 4.13984 12.075 3.46484 11.25 3.46484ZM11.25 12.4648C10.425 12.4648 9.75 13.1398 9.75 13.9648C9.75 14.7898 10.425 15.4648 11.25 15.4648C12.075 15.4648 12.75 14.7898 12.75 13.9648C12.75 13.1398 12.075 12.4648 11.25 12.4648Z" fill="#A5A5A5"/>
</svg>
