<svg width="16" height="16" viewBox="0 0 16 16" fill="none" xmlns="http://www.w3.org/2000/svg">
<path fill-rule="evenodd" clip-rule="evenodd" d="M2.95716 2.95698C3.21751 2.69663 3.63962 2.69663 3.89997 2.95698L7.93545 6.99246L11.9709 2.95698C12.2312 2.69663 12.6534 2.69663 12.9137 2.95698C13.1741 3.21733 13.1741 3.63944 12.9137 3.89979L8.87826 7.93527L12.9137 11.9707C13.1741 12.2311 13.1741 12.6532 12.9137 12.9135C12.6534 13.1739 12.2312 13.1739 11.9709 12.9135L7.93545 8.87808L3.89997 12.9135C3.63962 13.1739 3.21751 13.1739 2.95716 12.9135C2.69681 12.6532 2.69682 12.2311 2.95717 11.9707L6.99264 7.93527L2.95716 3.89979C2.69681 3.63944 2.69681 3.21733 2.95716 2.95698Z" fill="#383538"/>
</svg>
