<svg width="16" height="16" viewBox="0 0 16 16" fill="none" xmlns="http://www.w3.org/2000/svg">
<path d="M12.8697 3.84457C14.4508 6.02384 15.2316 8.48199 14.9397 11.3119C14.9385 11.3239 14.9318 11.3349 14.9213 11.3421C13.724 12.1663 12.5639 12.6665 11.4201 12.9982C11.4112 13.0007 11.4017 13.0006 11.3929 12.9978C11.3841 12.995 11.3764 12.9897 11.371 12.9826C11.1067 12.6379 10.8666 12.2745 10.6563 11.893C10.6442 11.8705 10.6552 11.8434 10.6801 11.8346C11.0614 11.6999 11.424 11.5384 11.7728 11.3473C11.8002 11.3322 11.802 11.2953 11.7766 11.2776C11.7026 11.2261 11.6293 11.1719 11.5591 11.1178C11.546 11.1078 11.5283 11.1058 11.5134 11.1126C9.24908 12.0928 6.76864 12.0928 4.47754 11.1126C4.46267 11.1063 4.44499 11.1085 4.43222 11.1183C4.36222 11.1724 4.28872 11.2261 4.21539 11.2776C4.19002 11.2953 4.19212 11.3322 4.21977 11.3473C4.56854 11.5348 4.93114 11.6999 5.31194 11.8352C5.33662 11.8441 5.34834 11.8705 5.33609 11.893C5.13029 12.275 4.89019 12.6384 4.62104 12.9831C4.60932 12.997 4.59007 13.0034 4.57187 12.9982C3.43349 12.6665 2.27342 12.1663 1.07607 11.3421C1.0661 11.3349 1.05892 11.3234 1.05787 11.3114C0.813923 8.86358 1.3111 6.38508 3.12602 3.84408C3.13039 3.83736 3.13704 3.83211 3.14474 3.82899C4.03777 3.44478 4.99449 3.16212 5.99444 3.00069C6.01264 2.99807 6.03084 3.00594 6.04029 3.02103C6.16384 3.2261 6.30506 3.48907 6.40061 3.70398C7.45464 3.55305 8.52511 3.55305 9.60118 3.70398C9.69673 3.49367 9.83306 3.2261 9.95608 3.02103C9.96046 3.01355 9.96726 3.00755 9.97549 3.00389C9.98372 3.00024 9.99298 2.99912 10.0019 3.00069C11.0024 3.16261 11.9591 3.44527 12.8515 3.82899C12.8593 3.83211 12.8658 3.83736 12.8697 3.84457ZM6.93646 8.49872C6.94749 7.77509 6.38469 7.1763 5.67822 7.1763C4.97752 7.1763 4.42014 7.76984 4.42014 8.49872C4.42014 9.22744 4.98854 9.82098 5.67822 9.82098C6.37909 9.82098 6.93646 9.22744 6.93646 8.49872ZM11.5883 8.49872C11.5993 7.77509 11.0365 7.1763 10.3302 7.1763C9.62936 7.1763 9.07198 7.76984 9.07198 8.49872C9.07198 9.22744 9.64038 9.82098 10.3302 9.82098C11.0365 9.82098 11.5883 9.22744 11.5883 8.49872Z" fill="white"/>
</svg>
