<svg width="16" height="16" viewBox="0 0 16 16" fill="none" xmlns="http://www.w3.org/2000/svg">
<path d="M14.3192 1.68079C15.2269 2.5885 15.2269 4.06019 14.3192 4.96791L5.73487 13.5523C5.36251 13.9246 4.89596 14.1888 4.38509 14.3165L1.72255 14.9821C1.29697 15.0885 0.911485 14.703 1.01788 14.2774L1.68351 11.6149C1.81123 11.104 2.07539 10.6375 2.44775 10.2651L11.0321 1.68079C11.9398 0.773072 13.4115 0.773072 14.3192 1.68079ZM10.2102 4.146L3.26953 11.0869C3.04611 11.3103 2.88762 11.5903 2.81099 11.8968L2.38024 13.6198L4.10322 13.189C4.40974 13.1124 4.68967 12.9539 4.91309 12.7305L11.8535 5.78932L10.2102 4.146ZM11.8539 2.50257L11.0319 3.32435L12.6752 4.96766L13.4974 4.14613C13.9513 3.69227 13.9513 2.95642 13.4974 2.50257C13.0436 2.04871 12.3077 2.04871 11.8539 2.50257Z" fill="#777777"/>
</svg>
