<svg width="18" height="18" viewBox="0 0 18 18" fill="none" xmlns="http://www.w3.org/2000/svg">
<g clip-path="url(#clip0_6403_407135)">
<path d="M9 17C13.4183 17 17 13.4183 17 9C17 4.58172 13.4183 1 9 1C4.58172 1 1 4.58172 1 9C1 13.4183 4.58172 17 9 17Z" fill="#627EEA"/>
<path d="M9.25 3V7.435L12.9985 9.11L9.25 3Z" fill="white" fill-opacity="0.602"/>
<path d="M9.249 3L5.5 9.11L9.249 7.435V3Z" fill="white"/>
<path d="M9.25 11.9841V14.9976L13.001 9.80811L9.25 11.9841Z" fill="white" fill-opacity="0.602"/>
<path d="M9.249 14.9976V11.9836L5.5 9.80811L9.249 14.9976Z" fill="white"/>
<path d="M9.25 11.2865L12.9985 9.11003L9.25 7.43604V11.2865Z" fill="white" fill-opacity="0.2"/>
<path d="M5.5 9.11003L9.249 11.2865V7.43604L5.5 9.11003Z" fill="white" fill-opacity="0.602"/>
</g>
<defs>
<clipPath id="clip0_6403_407135">
<rect width="16" height="16" fill="white" transform="translate(1 1)"/>
</clipPath>
</defs>
</svg>
