<svg width="16" height="16" viewBox="0 0 16 16" fill="none" xmlns="http://www.w3.org/2000/svg">
<path d="M12.667 5.08252H7.41699" stroke="#555555" stroke-width="1.27253" stroke-linecap="round" stroke-linejoin="round"/>
<path d="M9.16699 10.9165H3.91699" stroke="#555555" stroke-width="1.27253" stroke-linecap="round" stroke-linejoin="round"/>
<path d="M10.917 12.6655C11.8835 12.6655 12.667 11.882 12.667 10.9155C12.667 9.94903 11.8835 9.16553 10.917 9.16553C9.95049 9.16553 9.16699 9.94903 9.16699 10.9155C9.16699 11.882 9.95049 12.6655 10.917 12.6655Z" stroke="#555555" stroke-width="1.27253" stroke-linecap="round" stroke-linejoin="round"/>
<path d="M5.08301 6.83301C6.04951 6.83301 6.83301 6.04951 6.83301 5.08301C6.83301 4.11651 6.04951 3.33301 5.08301 3.33301C4.11651 3.33301 3.33301 4.11651 3.33301 5.08301C3.33301 6.04951 4.11651 6.83301 5.08301 6.83301Z" stroke="#555555" stroke-width="1.27253" stroke-linecap="round" stroke-linejoin="round"/>
</svg>
