<svg width="16" height="16" viewBox="0 0 16 16" fill="none" xmlns="http://www.w3.org/2000/svg">
<path d="M1.44334 13.034C1.56734 13.2207 1.776 13.3333 2 13.3333H12C12.2667 13.3333 12.508 13.1747 12.6127 12.9293L14.6127 8.26267C14.6565 8.16129 14.6744 8.0506 14.6647 7.94058C14.6551 7.83056 14.6182 7.72467 14.5574 7.63246C14.4967 7.54025 14.4139 7.46462 14.3165 7.4124C14.2192 7.36018 14.1104 7.33301 14 7.33333H13.3333V4.66667C13.3333 3.93133 12.7353 3.33333 12 3.33333H7.93334L6.41067 2.142C6.29356 2.04999 6.14893 1.99999 6 2H2.66667C1.93134 2 1.33334 2.598 1.33334 3.33333V12.6667H1.338C1.33652 12.7968 1.37313 12.9245 1.44334 13.034ZM11.5607 12H3.01134L4.44 8.66667H12.9893L11.5607 12ZM12 4.66667V7.33333H4C3.73334 7.33333 3.492 7.492 3.38734 7.73733L2.66667 9.41933V4.66667H12Z" fill="black"/>
</svg>
