<svg width="16" height="16" viewBox="0 0 16 16" fill="none" xmlns="http://www.w3.org/2000/svg">
<path d="M8.66667 6H7.33333V8H5.33333V9.33333H7.33333V11.3333H8.66667V9.33333H10.6667V8H8.66667V6Z" fill="black"/>
<path d="M13.3333 3.33333H7.60934L6.47134 2.19533C6.40953 2.13331 6.33607 2.08411 6.25518 2.05059C6.17429 2.01707 6.08756 1.99987 6 2H2.66667C1.93134 2 1.33334 2.598 1.33334 3.33333V12.6667C1.33334 13.402 1.93134 14 2.66667 14H13.3333C14.0687 14 14.6667 13.402 14.6667 12.6667V4.66667C14.6667 3.93133 14.0687 3.33333 13.3333 3.33333ZM2.66667 12.6667V4.66667H13.3333L13.3347 12.6667H2.66667Z" fill="black"/>
</svg>
