<svg width="16" height="16" viewBox="0 0 16 16" fill="none" xmlns="http://www.w3.org/2000/svg">
<path d="M12.8451 7.8584L12.8451 13.7165L3.24512 13.7165L3.24512 7.8584" fill="#0096FF"/>
<path d="M12.8451 7.8584L12.8451 13.7165L3.24512 13.7165L3.24512 7.8584" stroke="#0096FF" stroke-width="1.03931" stroke-linecap="round" stroke-linejoin="round"/>
<path d="M14 4.93018L2 4.93018L2 7.85923L14 7.85923L14 4.93018Z" fill="#0096FF" stroke="#0096FF" stroke-width="1.03931" stroke-linecap="round" stroke-linejoin="round"/>
<path d="M8.04473 4.92954L5.34473 4.92954C4.9469 4.92954 4.56537 4.77524 4.28407 4.50059C4.00276 4.22594 3.84473 3.85343 3.84473 3.46501C3.84473 3.0766 4.00276 2.70409 4.28407 2.42944C4.56537 2.15479 4.9469 2.00049 5.34473 2.00049C7.44473 2.00049 8.04473 4.92954 8.04473 4.92954Z" stroke="#141314" stroke-width="1.20433" stroke-linecap="round" stroke-linejoin="round"/>
<path d="M8.04492 4.92905L10.7449 4.92905C11.1427 4.92905 11.5243 4.77475 11.8056 4.5001C12.0869 4.22545 12.2449 3.85294 12.2449 3.46453C12.2449 3.07611 12.0869 2.7036 11.8056 2.42895C11.5243 2.1543 11.1427 2 10.7449 2C8.64492 2 8.04492 4.92905 8.04492 4.92905Z" stroke="#141314" stroke-width="1.20433" stroke-linecap="round" stroke-linejoin="round"/>
<path d="M8.06543 5.3291L8.06543 14.0003" stroke="#141314" stroke-width="1.20433"/>
</svg>
