<svg width="16" height="16" viewBox="0 0 16 16" fill="none" xmlns="http://www.w3.org/2000/svg">
<path d="M11.8889 3H4.11111C3.49746 3 3 3.49746 3 4.11111V11.8889C3 12.5025 3.49746 13 4.11111 13H11.8889C12.5025 13 13 12.5025 13 11.8889V4.11111C13 3.49746 12.5025 3 11.8889 3Z" stroke="#A5A5A5" stroke-width="1.20915" stroke-linecap="round" stroke-linejoin="round"/>
<path d="M6.33377 7.44586C6.94742 7.44586 7.44488 6.94839 7.44488 6.33474C7.44488 5.72109 6.94742 5.22363 6.33377 5.22363C5.72012 5.22363 5.22266 5.72109 5.22266 6.33474C5.22266 6.94839 5.72012 7.44586 6.33377 7.44586Z" stroke="#A5A5A5" stroke-width="1.20915" stroke-linecap="round" stroke-linejoin="round"/>
<path d="M12.9993 9.66672L11.2849 7.95227C11.0765 7.74397 10.794 7.62695 10.4993 7.62695C10.2047 7.62695 9.92216 7.74397 9.71379 7.95227L4.66602 13" stroke="#A5A5A5" stroke-width="1.20915" stroke-linecap="round" stroke-linejoin="round"/>
</svg>
