<svg width="16" height="16" viewBox="0 0 16 16" fill="none" xmlns="http://www.w3.org/2000/svg">
<circle cx="6.62823" cy="5.89239" r="2.89239" fill="#555555"/>
<path fill-rule="evenodd" clip-rule="evenodd" d="M11.8335 6.18115C12.3128 6.18115 12.7013 6.56964 12.7013 7.04887L12.7013 10.5197C12.7013 10.999 12.3128 11.3874 11.8335 11.3874C11.3543 11.3874 10.9658 10.999 10.9658 10.5197L10.9658 7.04887C10.9658 6.56964 11.3543 6.18115 11.8335 6.18115Z" fill="#555555"/>
<path fill-rule="evenodd" clip-rule="evenodd" d="M14.4365 8.78568C14.4365 9.26491 14.048 9.6534 13.5688 9.6534L10.0979 9.6534C9.61872 9.6534 9.23023 9.26491 9.23023 8.78568C9.23023 8.30646 9.61872 7.91797 10.0979 7.91797L13.5688 7.91797C14.048 7.91797 14.4365 8.30646 14.4365 8.78568Z" fill="#555555"/>
<path d="M10.7594 13.0536C11.0264 12.9931 11.1866 12.7155 11.0682 12.4686C10.749 11.8028 10.2244 11.2177 9.54444 10.7767C8.7077 10.2341 7.6825 9.93994 6.62782 9.93994C5.57314 9.93994 4.54793 10.2341 3.7112 10.7767C3.03123 11.2177 2.50661 11.8028 2.1874 12.4686C2.06904 12.7155 2.22921 12.9931 2.49625 13.0536C5.21619 13.6696 8.03944 13.6696 10.7594 13.0536Z" fill="#555555"/>
</svg>
