<svg width="22" height="22" viewBox="0 0 22 22" fill="none" xmlns="http://www.w3.org/2000/svg">
<path d="M3.20798 8.15914C3.42559 8.26721 3.6772 8.28446 3.90752 8.20711C4.13785 8.12977 4.32804 7.96414 4.43632 7.74664C5.01651 6.57495 5.8994 5.57968 6.99356 4.86393C8.08771 4.14817 9.35333 3.73796 10.6593 3.67578C11.9653 3.61359 13.2642 3.90171 14.4214 4.51027C15.5786 5.11883 16.5521 6.02571 17.2409 7.13698C17.9298 8.24824 18.3091 9.52348 18.3394 10.8306C18.3698 12.1377 18.0501 13.4292 17.4135 14.5712C16.777 15.7133 15.8466 16.6643 14.7189 17.3259C13.5912 17.9876 12.3071 18.3356 10.9996 18.3341C9.63279 18.3401 8.29196 17.9605 7.13103 17.2389C5.97011 16.5174 5.03614 15.4832 4.43632 14.255C4.32691 14.0362 4.13507 13.8698 3.903 13.7924C3.67092 13.7151 3.41762 13.7331 3.19881 13.8425C2.98001 13.9519 2.81363 14.1437 2.73627 14.3758C2.65891 14.6079 2.67691 14.8612 2.78632 15.08C3.70609 16.931 5.22443 18.4168 7.0949 19.2962C8.96537 20.1757 11.0782 20.3972 13.0904 19.9249C15.1026 19.4525 16.8961 18.3139 18.1798 16.6939C19.4635 15.074 20.162 13.0677 20.162 11.0008C20.162 8.93389 19.4635 6.92764 18.1798 5.30768C16.8961 3.68772 15.1026 2.54915 13.0904 2.07676C11.0782 1.60437 8.96537 1.82589 7.0949 2.70537C5.22443 3.58484 3.70609 5.07065 2.78632 6.92164C2.73169 7.03038 2.69926 7.14892 2.69092 7.27032C2.68259 7.39173 2.69851 7.51358 2.73776 7.62877C2.77701 7.74396 2.8388 7.85019 2.91953 7.94124C3.00027 8.0323 3.09832 8.10637 3.20798 8.15914ZM2.74965 11.9175L11.5405 11.9175L9.43215 14.0166C9.34668 14.1021 9.27888 14.2036 9.23263 14.3152C9.18637 14.4269 9.16256 14.5466 9.16256 14.6675C9.16256 14.7883 9.18637 14.908 9.23263 15.0197C9.27888 15.1314 9.34668 15.2328 9.43215 15.3183C9.51762 15.4038 9.61908 15.4716 9.73075 15.5178C9.84242 15.5641 9.96211 15.5879 10.083 15.5879C10.2039 15.5879 10.3235 15.5641 10.4352 15.5178C10.5469 15.4716 10.6483 15.4038 10.7338 15.3183L14.4005 11.6516C14.4839 11.5645 14.5494 11.4617 14.593 11.3491C14.6847 11.126 14.6847 10.8756 14.593 10.6525C14.5494 10.54 14.4839 10.4372 14.4005 10.35L10.7338 6.68331C10.6486 6.59739 10.5472 6.52919 10.4355 6.48266C10.3238 6.43612 10.204 6.41216 10.083 6.41216C9.96197 6.41216 9.84216 6.43612 9.73045 6.48266C9.61875 6.52919 9.51736 6.59739 9.43215 6.68331C9.34623 6.76852 9.27804 6.86991 9.2315 6.98161C9.18496 7.09332 9.161 7.21313 9.161 7.33414C9.161 7.45515 9.18496 7.57496 9.2315 7.68667C9.27804 7.79837 9.34623 7.89976 9.43215 7.98497L11.5405 10.0841L2.74965 10.0841C2.50653 10.0841 2.27338 10.1807 2.10147 10.3526C1.92956 10.5245 1.83298 10.7577 1.83298 11.0008C1.83298 11.2439 1.92956 11.4771 2.10147 11.649C2.27338 11.8209 2.50653 11.9175 2.74965 11.9175Z" fill="#383538"/>
</svg>
