<svg width="16" height="16" viewBox="0 0 16 16" fill="none" xmlns="http://www.w3.org/2000/svg">
<path d="M2.33423 5.93365C2.49248 6.01225 2.67547 6.0248 2.84298 5.96854C3.01049 5.91229 3.14881 5.79184 3.22756 5.63365C3.64952 4.78152 4.29162 4.05768 5.08737 3.53713C5.88312 3.01658 6.80357 2.71825 7.75338 2.67302C8.70319 2.6278 9.64782 2.83734 10.4894 3.27993C11.331 3.72252 12.039 4.38207 12.54 5.19026C13.041 5.99846 13.3169 6.9259 13.3389 7.87653C13.361 8.82716 13.1285 9.76641 12.6655 10.597C12.2026 11.4276 11.526 12.1193 10.7058 12.6004C9.88567 13.0816 8.95178 13.3347 8.00089 13.3337C7.00681 13.338 6.03166 13.0619 5.18735 12.5372C4.34304 12.0124 3.66379 11.2602 3.22756 10.367C3.14799 10.2079 3.00847 10.0869 2.83969 10.0306C2.67091 9.97433 2.48669 9.98742 2.32756 10.067C2.16843 10.1466 2.04742 10.2861 1.99116 10.4549C1.9349 10.6236 1.94799 10.8079 2.02756 10.967C2.69649 12.3132 3.80073 13.3937 5.16108 14.0334C6.52142 14.673 8.058 14.8341 9.52142 14.4905C10.9848 14.147 12.2892 13.3189 13.2228 12.1408C14.1564 10.9626 14.6644 9.50353 14.6644 8.00032C14.6644 6.49711 14.1564 5.03802 13.2228 3.85987C12.2892 2.68171 10.9848 1.85366 9.52142 1.5101C8.058 1.16655 6.52142 1.32765 5.16108 1.96727C3.80074 2.60689 2.69649 3.68748 2.02756 5.03365C1.98783 5.11274 1.96425 5.19894 1.95818 5.28724C1.95212 5.37554 1.9637 5.46416 1.99224 5.54793C2.02079 5.63171 2.06573 5.70896 2.12444 5.77518C2.18316 5.84141 2.25447 5.89528 2.33423 5.93365ZM2.00089 8.66699L8.39423 8.66699L6.86089 10.1937C6.79873 10.2558 6.74942 10.3296 6.71578 10.4108C6.68214 10.492 6.66483 10.5791 6.66483 10.667C6.66483 10.7549 6.68214 10.8419 6.71578 10.9232C6.74942 11.0044 6.79873 11.0782 6.86089 11.1403C6.92305 11.2025 6.99684 11.2518 7.07806 11.2854C7.15927 11.3191 7.24632 11.3364 7.33422 11.3364C7.42213 11.3364 7.50918 11.3191 7.59039 11.2854C7.67161 11.2518 7.7454 11.2025 7.80756 11.1403L10.4742 8.47365C10.5349 8.41025 10.5825 8.33549 10.6142 8.25365C10.6809 8.09135 10.6809 7.90929 10.6142 7.74699C10.5825 7.66515 10.5349 7.59039 10.4742 7.52699L7.80756 4.86032C7.74558 4.79783 7.67185 4.74824 7.59061 4.71439C7.50937 4.68055 7.42223 4.66312 7.33423 4.66312C7.24622 4.66312 7.15908 4.68055 7.07784 4.71439C6.9966 4.74824 6.92287 4.79783 6.86089 4.86032C6.79841 4.9223 6.74881 4.99603 6.71496 5.07727C6.68112 5.15851 6.66369 5.24564 6.66369 5.33365C6.66369 5.42166 6.68112 5.5088 6.71496 5.59004C6.74881 5.67128 6.79841 5.74501 6.86089 5.80699L8.39423 7.33365L2.00089 7.33365C1.82408 7.33365 1.65451 7.40389 1.52949 7.52891C1.40446 7.65394 1.33423 7.82351 1.33423 8.00032C1.33423 8.17713 1.40446 8.3467 1.52949 8.47172C1.65451 8.59675 1.82408 8.66699 2.00089 8.66699Z" fill="white"/>
</svg>
