<svg width="18" height="18" viewBox="0 0 18 18" fill="none" xmlns="http://www.w3.org/2000/svg">
<rect x="2.55918" y="2.28867" width="12.8879" height="13.6244" rx="1.65702" stroke="#555555" stroke-width="1.10468"/>
<path d="M12.4129 10.7812C11.9026 10.1769 11.5423 9.92281 11.5423 8.25625C11.5423 6.72937 10.7367 6.18656 10.0735 5.92281C10.0278 5.90373 9.98656 5.8753 9.95244 5.83935C9.91832 5.80341 9.89209 5.76073 9.87542 5.71406C9.75948 5.33125 9.43417 5 9.00042 5C8.56667 5 8.24073 5.33125 8.12542 5.71438C8.10885 5.76105 8.08269 5.80374 8.04862 5.8397C8.01455 5.87565 7.97333 5.90407 7.9276 5.92312C7.26385 6.1875 6.45885 6.72938 6.45885 8.25656C6.45885 9.92313 6.09823 10.1772 5.58792 10.7816C5.37635 11.0316 5.56761 11.5003 5.93761 11.5003H12.0629C12.4307 11.5 12.6235 11.0312 12.4129 10.7812ZM7.88292 12C7.86534 11.9999 7.84793 12.0035 7.83184 12.0106C7.81575 12.0177 7.80134 12.0281 7.78954 12.0411C7.77775 12.0542 7.76883 12.0695 7.76338 12.0863C7.75793 12.103 7.75607 12.1206 7.75792 12.1381C7.82823 12.7231 8.3476 13 9.00042 13C9.64636 13 10.161 12.7141 10.2398 12.14C10.2419 12.1224 10.2403 12.1045 10.235 12.0875C10.2296 12.0706 10.2208 12.055 10.2089 12.0417C10.1971 12.0285 10.1826 12.0179 10.1664 12.0107C10.1501 12.0035 10.1325 11.9999 10.1148 12H7.88292Z" fill="#555555"/>
<circle cx="14" cy="3.5" r="2" fill="#555555" stroke="white" stroke-width="0.8"/>
</svg>
