<svg width="16" height="16" viewBox="0 0 16 16" fill="none" xmlns="http://www.w3.org/2000/svg">
<path d="M10.3326 9.44891H9.86916L9.70492 9.29062C10.4088 8.4699 10.7725 7.3502 10.573 6.16015C10.2974 4.53043 8.9365 3.229 7.29409 3.02968C4.81288 2.72484 2.72468 4.81182 3.0297 7.29158C3.22913 8.93302 4.53133 10.2931 6.162 10.5686C7.35275 10.7679 8.47311 10.4045 9.29431 9.70099L9.45269 9.86513V10.3283L11.9456 12.8197C12.1861 13.0601 12.5791 13.0601 12.8196 12.8197C13.0601 12.5794 13.0601 12.1866 12.8196 11.9462L10.3326 9.44891ZM6.8131 9.44891C5.35253 9.44891 4.17352 8.27058 4.17352 6.81087C4.17352 5.35115 5.35253 4.17283 6.8131 4.17283C8.27367 4.17283 9.45269 5.35115 9.45269 6.81087C9.45269 8.27058 8.27367 9.44891 6.8131 9.44891Z" fill="#A5A5A5"/>
</svg>
