<svg width="16" height="16" viewBox="0 0 16 16" fill="none" xmlns="http://www.w3.org/2000/svg">
<path d="M14.4729 13.5308L13.2823 12.3401C13.3123 12.2314 13.3329 12.1188 13.3329 12.0001V7.33343H11.9996V11.0574L4.94227 4.0001H8.66627V2.66676H3.99961C3.88094 2.66676 3.76827 2.68743 3.65961 2.71743L2.47294 1.53076L1.53027 2.47343L13.5303 14.4734L14.4729 13.5308ZM2.66627 5.4141V12.0001C2.66627 12.7354 3.26427 13.3334 3.99961 13.3334H10.5856L9.25227 12.0001H3.99961V6.74743L2.66627 5.4141Z" fill="#555555"/>
<path d="M12 6C13.1046 6 14 5.10457 14 4C14 2.89543 13.1046 2 12 2C10.8954 2 10 2.89543 10 4C10 5.10457 10.8954 6 12 6Z" fill="#555555"/>
</svg>
