<svg width="20" height="22" viewBox="0 0 20 22" fill="none" xmlns="http://www.w3.org/2000/svg">
<rect x="3.55263" y="9.23281" width="12.8947" height="10.6842" rx="1.65789" stroke="#555555" stroke-width="1.10526"/>
<g clip-path="url(#clip0_8928_406905)">
<rect x="7.07227" y="5.83545" width="5.86472" height="9.38355" fill="white"/>
<path d="M10.8924 4.9648C10.7658 5.95184 9.33802 5.95022 9.19935 4.9648L7.86063 4.9648C6.92507 4.9648 6.0994 5.78383 6.09153 6.71898L6.03098 14.2458C6.02857 14.4768 6.07221 14.7061 6.15936 14.9201C6.24651 15.1341 6.375 14.7797 6.53815 14.9433C6.70025 15.1079 6.83934 14.8545 7.05254 14.9433C7.26575 15.0322 7.5584 14.944 7.78938 14.9433L10.0059 14.9433H12.2104C12.6807 14.9433 13.1443 15.2784 13.4794 14.9433C13.8107 14.6119 13.9953 14.7198 13.999 14.2557L14.0587 6.72893C14.0613 6.49783 14.0177 6.26855 13.9305 6.0545C13.8434 5.84045 13.7144 5.64594 13.5511 5.48235C13.389 5.31787 13.1956 5.18738 12.9824 5.09852C12.7693 5.00965 11.1234 4.9642 10.8924 4.9648ZM12.8859 6.71981L12.8266 14.2462C12.8233 14.5589 12.5422 14.8375 12.2303 14.8375L11.1728 14.8375L10.8119 14.8371C10.8119 14.8371 10.3063 14.8381 10.0059 14.8371C9.70538 14.8378 9.19935 14.8371 9.19935 14.8371L8.83849 14.8371L7.78142 14.8375C7.62674 14.8371 7.4816 14.7766 7.37253 14.6667C7.26346 14.5568 7.20333 14.4104 7.20499 14.2561L7.26554 6.72935C7.26678 6.57383 7.32899 6.42703 7.44178 6.31423C7.555 6.20102 7.70429 6.13799 7.86187 6.13799L8.91935 6.13799C8.93345 6.43808 9.06244 6.72126 9.27961 6.92885C9.49677 7.13645 9.78547 7.25255 10.0859 7.25311C10.3864 7.25248 10.6751 7.13638 10.8924 6.92882C11.1097 6.72126 11.2389 6.43813 11.2533 6.13799L12.3099 6.13799C12.465 6.13799 12.6098 6.19895 12.7188 6.30884C12.8279 6.41874 12.8876 6.56471 12.8859 6.71981Z" fill="#555555"/>
</g>
<path d="M5.21094 14.5747L14.7899 14.5747" stroke="#555555" stroke-width="1.28947" stroke-linecap="round"/>
<defs>
<clipPath id="clip0_8928_406905">
<rect width="14.0753" height="14.0753" fill="white" transform="translate(0.0527344 10.5278) rotate(-45)"/>
</clipPath>
</defs>
</svg>
