<svg width="18" height="18" viewBox="0 0 18 18" fill="none" xmlns="http://www.w3.org/2000/svg">
<path d="M3 6.25C3 4.36438 3 3.42157 3.58579 2.83579C4.17157 2.25 5.11438 2.25 7 2.25H11C12.8856 2.25 13.8284 2.25 14.4142 2.83579C15 3.42157 15 4.36438 15 6.25V11.75C15 13.6356 15 14.5784 14.4142 15.1642C13.8284 15.75 12.8856 15.75 11 15.75H7C5.11438 15.75 4.17157 15.75 3.58579 15.1642C3 14.5784 3 13.6356 3 11.75V6.25Z" fill="#FFC814"/>
<path fill-rule="evenodd" clip-rule="evenodd" d="M6.17308 10.1538C6.17308 9.7396 6.50887 9.40381 6.92308 9.40381L11.4231 9.40381C11.8373 9.40381 12.1731 9.73959 12.1731 10.1538C12.1731 10.568 11.8373 10.9038 11.4231 10.9038L6.92308 10.9038C6.50887 10.9038 6.17308 10.568 6.17308 10.1538Z" fill="#383538"/>
<path fill-rule="evenodd" clip-rule="evenodd" d="M6.17308 12.9229C6.17308 12.5086 6.50887 12.1729 6.92308 12.1729L11.4231 12.1729C11.8373 12.1729 12.1731 12.5086 12.1731 12.9229C12.1731 13.3371 11.8373 13.6729 11.4231 13.6729L6.92308 13.6729C6.50887 13.6729 6.17308 13.3371 6.17308 12.9229Z" fill="#383538"/>
<rect x="5.07692" y="3.69238" width="7.84615" height="4.15385" rx="1" fill="white"/>
<path fill-rule="evenodd" clip-rule="evenodd" d="M13.7885 1.55762C14.1708 1.55762 14.4808 1.86757 14.4808 2.24992L14.4808 3.80762H16.0385C16.4208 3.80762 16.7308 4.11757 16.7308 4.49992C16.7308 4.88228 16.4208 5.19223 16.0385 5.19223L14.4808 5.19223L14.4808 6.74993C14.4808 7.13228 14.1708 7.44223 13.7885 7.44223C13.4061 7.44223 13.0962 7.13228 13.0962 6.74993L13.0962 5.19223L11.5385 5.19223C11.1561 5.19223 10.8462 4.88228 10.8462 4.49992C10.8462 4.11757 11.1561 3.80762 11.5385 3.80762H13.0962L13.0962 2.24992C13.0962 1.86757 13.4061 1.55762 13.7885 1.55762Z" fill="#383538"/>
</svg>
