<svg width="96" height="96" viewBox="0 0 96 96" fill="none" xmlns="http://www.w3.org/2000/svg">
<path d="M67.4768 60.4226L70.9981 63.9457V58.9645V57.5166C70.9981 57.0526 71.1823 56.6079 71.5098 56.2802C71.8373 55.9525 72.2813 55.7686 72.744 55.7686C73.2067 55.7686 73.6507 55.9525 73.9782 56.2802C74.3058 56.6079 74.49 57.0526 74.49 57.5166V76.5687C74.49 79.0538 73.5033 81.4369 71.7473 83.1938C69.9913 84.9507 67.6099 85.9375 65.1271 85.9375H19.4254C16.9426 85.9375 14.5612 84.9507 12.8052 83.1938C11.0492 81.4369 10.0625 79.0538 10.0625 76.5687V30.8436C10.0625 28.3585 11.0492 25.9754 12.8052 24.2185C14.5612 22.4616 16.9426 21.4748 19.4254 21.4748H46.0847C46.5474 21.4748 46.9914 21.6587 47.3189 21.9864C47.6465 22.3141 47.8307 22.7588 47.8307 23.2227C47.8307 23.6866 47.6465 24.1313 47.3189 24.4591C46.9914 24.7867 46.5474 24.9706 46.0847 24.9706H19.4254C17.868 24.9706 16.3746 25.5897 15.2736 26.6912C14.1727 27.7926 13.5544 29.2863 13.5544 30.8436V52.182V57.1631L17.0757 53.64L22.6933 48.0195C24.3259 46.4731 26.4887 45.6111 28.7371 45.6111C30.9855 45.6111 33.1483 46.4731 34.7809 48.0195L44.207 57.4504L45.6658 58.91L47.1246 57.4504L49.7847 54.7889C49.7856 54.788 49.7865 54.7871 49.7874 54.7863C51.3911 53.1958 53.5576 52.3035 55.8154 52.3035C58.0731 52.3035 60.2396 53.1958 61.8434 54.7863C61.8442 54.7871 61.8451 54.788 61.846 54.7889L67.4768 60.4226ZM14.1582 61.5075L13.5544 62.1115V62.9655V76.5687C13.5544 78.126 14.1727 79.6197 15.2736 80.7211C16.3746 81.8226 17.868 82.4417 19.4254 82.4417H59.262H64.2395L60.7208 78.9211L44.3444 62.5363L32.2715 50.4572L32.254 50.4396L32.236 50.4225C31.293 49.5234 30.0401 49.0217 28.7371 49.0217C27.4341 49.0217 26.1813 49.5234 25.2383 50.4225L25.2203 50.4396L25.2027 50.4572L14.1582 61.5075ZM70.998 76.5842L70.9981 76.5765V76.5687V69.7481V68.8982L70.3994 68.2951L59.4027 57.2166C59.4008 57.2147 59.3989 57.2128 59.397 57.2109C58.9331 56.7387 58.38 56.3634 57.7698 56.1069C57.1571 55.8493 56.4991 55.7166 55.8344 55.7166C55.1697 55.7166 54.5118 55.8493 53.899 56.1069C53.29 56.3629 52.7379 56.7372 52.2745 57.2081L49.615 59.869L48.161 61.3238L49.6118 62.7818L66.788 80.0431L68.4636 81.7269L69.8956 79.8316C70.6027 78.8958 70.9892 77.757 70.998 76.5842ZM85.4147 21.9754L85.4207 21.9813C85.5844 22.1438 85.7144 22.3371 85.8031 22.5501C85.8918 22.7632 85.9375 22.9918 85.9375 23.2227C85.9375 23.4536 85.8918 23.6822 85.8031 23.8953C85.7144 24.1083 85.5844 24.3017 85.4207 24.4641L85.4147 24.4701L85.4087 24.4761C85.2463 24.6399 85.0532 24.7698 84.8406 24.8584C84.6279 24.9471 84.3998 24.9927 84.1694 24.9927C83.9391 24.9927 83.711 24.9471 83.4983 24.8585C83.2856 24.7698 83.0925 24.6399 82.9302 24.4761L82.9298 24.4757L78.0169 19.5222L74.49 15.9661V20.9746V42.2749C74.49 42.7388 74.3058 43.1835 73.9782 43.5112C73.6507 43.8389 73.2067 44.0228 72.744 44.0228C72.2813 44.0228 71.8373 43.8389 71.5098 43.5112C71.1823 43.1835 70.9981 42.7388 70.9981 42.2749V20.9746V15.9661L67.4712 19.5222L62.5638 24.4701C62.563 24.471 62.5621 24.4718 62.5612 24.4727C62.2311 24.8017 61.7842 24.9862 61.3186 24.9862C60.8518 24.9862 60.4038 24.8007 60.0734 24.4701L58.6146 25.9281L60.0734 24.4701C59.7429 24.1394 59.5571 23.6908 59.5571 23.2227C59.5571 22.991 59.6027 22.7615 59.6913 22.5475C59.7799 22.3335 59.9097 22.1391 60.0734 21.9753L58.6146 20.5173L60.0734 21.9753L71.4798 10.563C71.6431 10.4099 71.8342 10.2896 72.0427 10.2087L72.0619 10.2013L72.0809 10.1935C72.5058 10.0188 72.9823 10.0188 73.4072 10.1935L73.4261 10.2013L73.4453 10.2087C73.6539 10.2896 73.8449 10.4099 74.0082 10.563L85.4147 21.9754Z" fill="#A5A5A5" stroke="#A5A5A5" stroke-width="4.125"/>
<path d="M49.8852 42.8159C52.7483 42.8159 55.0693 40.4949 55.0693 37.6318C55.0693 34.7688 52.7483 32.4478 49.8852 32.4478C47.0221 32.4478 44.7011 34.7688 44.7011 37.6318C44.7011 40.4949 47.0221 42.8159 49.8852 42.8159Z" fill="#A5A5A5" stroke="#A5A5A5" stroke-width="5.5" stroke-linecap="round" stroke-linejoin="round"/>
</svg>
