<svg width="22" height="22" viewBox="0 0 22 22" fill="none" xmlns="http://www.w3.org/2000/svg">
<path d="M12.9581 3.08148L13.9532 2.98198L13.952 2.97064L13.9506 2.95933L12.9581 3.08148ZM12.9581 3.08146L11.9631 3.18096L11.9642 3.1923L11.9656 3.20362L12.9581 3.08146ZM13.1548 4.19088L12.2849 4.68406V4.68406L13.1548 4.19088ZM14.2911 4.66156L14.5575 5.62542L14.2911 4.66156ZM15.2146 4.01621L14.5814 3.24225L14.5814 3.24225L15.2146 4.01621ZM15.7269 3.64876L15.3357 2.72845V2.72845L15.7269 3.64876ZM16.5989 3.69225L16.1181 4.56906V4.56906L16.5989 3.69225ZM17.8912 4.92791L17.1841 5.63501L17.1841 5.63501L17.8912 4.92791ZM18.3078 5.40115L19.1846 4.92035V4.92035L18.3078 5.40115ZM18.3513 6.27311L19.2716 6.66427L19.2716 6.66427L18.3513 6.27311ZM17.9837 6.78554L18.7577 7.41877L18.7577 7.41877L17.9837 6.78554ZM17.3384 7.70891L16.3746 7.44239L16.3746 7.44239L17.3384 7.70891ZM17.8092 8.84541L17.3161 9.7154L17.3161 9.7154L17.8092 8.84541ZM18.9182 9.04201L19.0177 8.04697H19.0177L18.9182 9.04201ZM19.5401 9.14437L19.9141 8.21696L19.9141 8.21696L19.5401 9.14437ZM20.126 9.79186L21.0861 9.51194V9.51194L20.126 9.79186ZM20.126 12.2084L21.0861 12.4883L21.0861 12.4883L20.126 12.2084ZM19.5401 12.8559L19.166 11.9285L19.166 11.9285L19.5401 12.8559ZM18.9182 12.9582L19.0177 13.9533L18.9182 12.9582ZM17.8091 13.1548L18.3022 14.0248L18.3022 14.0248L17.8091 13.1548ZM17.3384 14.2913L18.3022 14.0248V14.0248L17.3384 14.2913ZM17.9836 15.2146L17.2097 15.8478V15.8478L17.9836 15.2146ZM18.351 15.7268L19.2713 15.3356L19.2713 15.3356L18.351 15.7268ZM18.3075 16.5989L19.1843 17.0798L19.1843 17.0798L18.3075 16.5989ZM17.891 17.072L17.1839 16.3649L17.1839 16.3649L17.891 17.072ZM17.0718 17.8912L17.7789 18.5983L17.7789 18.5983L17.0718 17.8912ZM16.5988 18.3077L16.1179 17.4309L16.1179 17.4309L16.5988 18.3077ZM15.7266 18.3512L15.3353 19.2715L15.3353 19.2715L15.7266 18.3512ZM15.2145 17.9839L15.8477 17.2099L15.8477 17.2099L15.2145 17.9839ZM14.2913 17.3387L14.0248 18.3025H14.0248L14.2913 17.3387ZM13.1548 17.8094L14.0248 18.3025L13.1548 17.8094ZM12.9581 18.9187L13.9504 19.0427L13.952 19.0305L13.9532 19.0182L12.9581 18.9187ZM12.9581 18.9187L11.9659 18.7947L11.9643 18.8069L11.9631 18.8192L12.9581 18.9187ZM12.8557 19.541L11.9283 19.1668L11.9283 19.1668L12.8557 19.541ZM12.2084 20.1268L11.9283 19.1668L11.9283 19.1668L12.2084 20.1268ZM9.79158 20.1268L9.51151 21.0868L9.51152 21.0868L9.79158 20.1268ZM9.14431 19.541L8.21696 19.9152L9.14431 19.541ZM9.04186 18.9188L10.0369 18.8193V18.8193L9.04186 18.9188ZM8.84511 17.8092L9.71498 17.3159L9.71498 17.3159L8.84511 17.8092ZM7.70895 17.3386L7.44266 16.3747L7.44266 16.3747L7.70895 17.3386ZM6.78517 17.9841L6.15193 17.2102L6.11333 17.2417L6.07806 17.277L6.78517 17.9841ZM6.78515 17.9841L7.41839 18.7581L7.45699 18.7265L7.49226 18.6912L6.78515 17.9841ZM6.27268 18.3517L6.66378 19.272L6.66379 19.272L6.27268 18.3517ZM5.40083 18.3082L5.88157 17.4314L5.88157 17.4314L5.40083 18.3082ZM4.92748 17.8915L4.22037 18.5986L4.22037 18.5986L4.92748 17.8915ZM4.10854 17.0725L4.81564 16.3654H4.81564L4.10854 17.0725ZM3.69185 16.5993L2.81501 17.08L2.81501 17.08L3.69185 16.5993ZM3.64836 15.7273L2.72803 15.3362L2.72803 15.3362L3.64836 15.7273ZM4.01589 15.2149L4.78984 15.8482L4.78985 15.8482L4.01589 15.2149ZM4.66137 14.2912L3.69748 14.0249L3.69748 14.0249L4.66137 14.2912ZM4.19074 13.155L3.69748 14.0249L3.69748 14.0249L4.19074 13.155ZM3.08094 12.9583L3.18045 11.9632H3.18045L3.08094 12.9583ZM2.45837 12.8558L2.08406 13.7831H2.08406L2.45837 12.8558ZM1.87273 12.2087L2.83268 11.9285L2.83268 11.9285L1.87273 12.2087ZM1.83268 11.5791H2.83268H1.83268ZM1.83268 10.4212H0.83268H1.83268ZM1.87273 9.7916L2.83268 10.0718L2.83268 10.0718L1.87273 9.7916ZM2.45838 9.14447L2.08408 8.21716L2.08408 8.21716L2.45838 9.14447ZM3.08084 9.04197V8.04197H3.03097L2.98134 8.04693L3.08084 9.04197ZM3.08085 9.04197V10.042H3.15109L3.22064 10.0322L3.08085 9.04197ZM3.08086 9.04197L2.98136 8.04693L2.96116 8.04895L2.94107 8.05179L3.08086 9.04197ZM4.19081 8.84514L4.68419 9.71496L4.68419 9.71496L4.19081 8.84514ZM4.66136 7.70914L5.62528 7.44296V7.44295L4.66136 7.70914ZM4.01571 6.78514L3.24175 7.41838L3.24175 7.41838L4.01571 6.78514ZM3.64809 6.27259L2.72772 6.66365L2.72772 6.66365L3.64809 6.27259ZM3.69157 5.40083L2.81468 4.92012H2.81468L3.69157 5.40083ZM4.10837 4.9274L4.81547 5.6345L4.81548 5.6345L4.10837 4.9274ZM5.40067 3.69174L4.92 2.81484L4.92 2.81484L5.40067 3.69174ZM6.27235 3.64827L5.88133 4.56865L5.88133 4.56865L6.27235 3.64827ZM6.78508 4.01602L7.44358 3.26344L7.43112 3.25254L7.41831 3.24206L6.78508 4.01602ZM6.78508 4.01602L6.12658 4.7686L6.13903 4.7795L6.15184 4.78998L6.78508 4.01602ZM7.70892 4.66162L7.97525 3.69774L7.97525 3.69774L7.70892 4.66162ZM8.84515 4.19097L9.71504 4.68421L9.71504 4.68421L8.84515 4.19097ZM9.04187 3.08148L10.0369 3.18098L10.0419 3.13135V3.08148H9.04187ZM9.04187 3.08147L8.04683 2.98197L8.04187 3.0316V3.08147H9.04187ZM9.14429 2.45932L10.0717 2.8335L10.0717 2.8335L9.14429 2.45932ZM9.79161 1.87351L9.51157 0.91352L9.51157 0.91352L9.79161 1.87351ZM12.2084 1.8735L12.4884 0.913514L12.4884 0.913514L12.2084 1.8735ZM12.8557 2.45933L11.9283 2.8335L11.9283 2.8335L12.8557 2.45933ZM13.9506 2.95933L13.9506 2.95931L11.9656 3.20362L11.9656 3.20364L13.9506 2.95933ZM14.0247 3.6977C14.0638 3.76667 14.0519 3.7894 14.0279 3.64032C14.0053 3.49944 13.9853 3.30315 13.9532 2.98198L11.9631 3.18099C11.9927 3.47699 12.0189 3.74358 12.0532 3.9572C12.0862 4.16261 12.1417 4.43146 12.2849 4.68406L14.0247 3.6977ZM14.0247 3.6977V3.6977L12.2849 4.68406C12.7371 5.4817 13.6738 5.86968 14.5575 5.62542L14.0247 3.6977ZM14.5814 3.24225C14.3316 3.44663 14.1786 3.57124 14.063 3.65486C13.9407 3.74336 13.9483 3.71881 14.0247 3.6977L14.5575 5.62542C14.8374 5.54807 15.0668 5.39722 15.2353 5.27529C15.4106 5.14848 15.6176 4.97853 15.8479 4.79017L14.5814 3.24225ZM15.3357 2.72845C15.0401 2.85412 14.7828 3.07745 14.5814 3.24225L15.8479 4.79017C15.9825 4.68 16.0552 4.62091 16.1101 4.58042C16.1594 4.54409 16.1532 4.55414 16.1181 4.56906L15.3357 2.72845ZM17.0798 2.81544C16.5424 2.52078 15.8997 2.48872 15.3357 2.72845L16.1181 4.56906V4.56906L17.0798 2.81544ZM17.7792 3.40174C17.5952 3.21772 17.3614 2.9699 17.0798 2.81544L16.1181 4.56906C16.0846 4.55072 16.0795 4.54011 16.1249 4.58116C16.1755 4.62691 16.242 4.69294 16.365 4.81596L17.7792 3.40174ZM18.5983 4.2208L17.7792 3.40174L16.365 4.81596L17.1841 5.63501L18.5983 4.2208ZM19.1846 4.92035C19.0302 4.63863 18.7823 4.40485 18.5983 4.2208L17.1841 5.63501C17.3071 5.75805 17.3731 5.82451 17.4189 5.87512C17.4599 5.92054 17.4493 5.91541 17.431 5.88194L19.1846 4.92035ZM19.2716 6.66427C19.5113 6.10033 19.4793 5.45764 19.1846 4.92035L17.431 5.88194V5.88194L19.2716 6.66427ZM18.7577 7.41877C18.9226 7.21729 19.1459 6.95996 19.2716 6.66427L17.431 5.88194C17.4459 5.8468 17.456 5.84065 17.4196 5.88994C17.3791 5.94488 17.32 6.01761 17.2098 6.1523L18.7577 7.41877ZM18.3023 7.97543C18.2811 8.05184 18.2566 8.05944 18.3451 7.9371C18.4287 7.82152 18.5533 7.66855 18.7577 7.41877L17.2098 6.1523C17.0214 6.38251 16.8515 6.58953 16.7247 6.76478C16.6028 6.93329 16.452 7.16259 16.3746 7.44239L18.3023 7.97543ZM18.3023 7.97543V7.97542L16.3746 7.44239C16.1302 8.32631 16.5182 9.2632 17.3161 9.7154L18.3023 7.97543ZM19.0177 8.04697C18.6966 8.01486 18.5004 7.99482 18.3596 7.97222C18.2106 7.94831 18.2333 7.93635 18.3023 7.97542L17.3161 9.7154C17.5687 9.85853 17.8374 9.91402 18.0428 9.94696C18.2563 9.98123 18.5228 10.0075 18.8187 10.037L19.0177 8.04697ZM19.9141 8.21696C19.6163 8.09684 19.2766 8.07286 19.0177 8.04697L18.8187 10.037C18.9917 10.0543 19.0849 10.064 19.1523 10.0742C19.2128 10.0833 19.2014 10.086 19.166 10.0718L19.9141 8.21696ZM21.0861 9.51194C20.9145 8.92351 20.4826 8.44624 19.9141 8.21696L19.166 10.0718L19.166 10.0718L21.0861 9.51194ZM21.166 10.4208C21.166 10.1607 21.176 9.82025 21.0861 9.51194L19.166 10.0718C19.1553 10.0352 19.1592 10.024 19.1623 10.0851C19.1657 10.1533 19.166 10.2469 19.166 10.4208H21.166ZM21.166 11.5794V10.4208H19.166V11.5794H21.166ZM21.0861 12.4883C21.176 12.18 21.166 11.8396 21.166 11.5794H19.166C19.166 11.7533 19.1657 11.847 19.1623 11.9151C19.1592 11.9762 19.1553 11.9651 19.166 11.9285L21.0861 12.4883ZM19.9141 13.7833C20.4826 13.554 20.9145 13.0767 21.0861 12.4883L19.166 11.9285L19.166 11.9285L19.9141 13.7833ZM19.0177 13.9533C19.2766 13.9274 19.6163 13.9034 19.9141 13.7833L19.166 11.9285C19.2014 11.9142 19.2128 11.9169 19.1523 11.9261C19.0849 11.9363 18.9917 11.9459 18.8187 11.9632L19.0177 13.9533ZM18.3022 14.0248C18.2333 14.0639 18.2105 14.0519 18.3596 14.028C18.5004 14.0054 18.6966 13.9854 19.0177 13.9533L18.8187 11.9632C18.5228 11.9928 18.2563 12.019 18.0427 12.0533C17.8374 12.0862 17.5686 12.1417 17.316 12.2849L18.3022 14.0248ZM18.3022 14.0248V14.0248L17.316 12.2849C16.5182 12.7371 16.1301 13.6739 16.3745 14.5578L18.3022 14.0248ZM18.7576 14.5814C18.5532 14.3316 18.4286 14.1787 18.345 14.0631C18.2566 13.9408 18.2811 13.9484 18.3022 14.0248L16.3745 14.5578C16.4519 14.8376 16.6027 15.0669 16.7246 15.2354C16.8514 15.4107 17.0213 15.6177 17.2097 15.8478L18.7576 14.5814ZM19.2713 15.3356C19.1457 15.04 18.9224 14.7828 18.7576 14.5814L17.2097 15.8478C17.3198 15.9825 17.3789 16.0552 17.4194 16.1101C17.4557 16.1593 17.4457 16.1532 17.4307 16.1181L19.2713 15.3356ZM19.1843 17.0798C19.479 16.5424 19.5111 15.8996 19.2713 15.3356L17.4307 16.1181L17.4307 16.1181L19.1843 17.0798ZM18.5981 17.7791C18.7821 17.5951 19.0299 17.3614 19.1843 17.0798L17.4307 16.1181C17.4491 16.0846 17.4597 16.0795 17.4187 16.1249C17.3729 16.1755 17.3069 16.2419 17.1839 16.3649L18.5981 17.7791ZM17.7789 18.5983L18.5981 17.7791L17.1839 16.3649L16.3647 17.1841L17.7789 18.5983ZM17.7789 18.5983L17.7789 18.5983L16.3647 17.1841L16.3647 17.1841L17.7789 18.5983ZM17.0797 19.1845C17.3612 19.03 17.5949 18.7823 17.7789 18.5983L16.3647 17.1841C16.2417 17.3071 16.1753 17.3731 16.1247 17.4189C16.0793 17.4599 16.0844 17.4493 16.1179 17.4309L17.0797 19.1845ZM15.3353 19.2715C15.8994 19.5113 16.5423 19.4792 17.0797 19.1845L16.1179 17.4309L16.1179 17.4309L15.3353 19.2715ZM14.5812 18.7578C14.7826 18.9226 15.0398 19.1458 15.3353 19.2715L16.1179 17.4309C16.153 17.4459 16.1591 17.4559 16.1099 17.4196C16.055 17.3791 15.9823 17.32 15.8477 17.2099L14.5812 18.7578ZM14.0248 18.3025C13.9484 18.2814 13.9408 18.2569 14.063 18.3453C14.1786 18.4289 14.3315 18.5535 14.5812 18.7578L15.8477 17.2099C15.6176 17.0216 15.4106 16.8517 15.2353 16.7249C15.0668 16.603 14.8376 16.4522 14.5578 16.3749L14.0248 18.3025ZM14.0248 18.3025L14.5578 16.3749C13.6739 16.1304 12.737 16.5185 12.2848 17.3164L14.0248 18.3025ZM13.9532 19.0182C13.9853 18.6971 14.0053 18.5008 14.028 18.3599C14.0519 18.2108 14.0638 18.2335 14.0248 18.3025L12.2848 17.3164C12.1416 17.5689 12.0862 17.8377 12.0532 18.0431C12.0189 18.2567 11.9927 18.5232 11.9631 18.8192L13.9532 19.0182ZM13.9504 19.0427L13.9504 19.0427L11.9659 18.7946L11.9659 18.7947L13.9504 19.0427ZM13.783 19.9152C13.9033 19.6172 13.9273 19.2773 13.9532 19.0182L11.9631 18.8192C11.9458 18.9924 11.9362 19.0856 11.926 19.1531C11.9168 19.2137 11.9141 19.2022 11.9283 19.1668L13.783 19.9152ZM12.4885 21.0868C13.0767 20.9152 13.5538 20.4834 13.783 19.9152L11.9283 19.1668L11.9283 19.1668L12.4885 21.0868ZM11.5791 21.1668C11.8394 21.1668 12.18 21.1768 12.4885 21.0868L11.9283 19.1668C11.965 19.1561 11.9761 19.16 11.915 19.1631C11.8468 19.1665 11.7531 19.1668 11.5791 19.1668V21.1668ZM10.4209 21.1668H11.5791V19.1668H10.4209V21.1668ZM9.51152 21.0868C9.81998 21.1768 10.1606 21.1668 10.4209 21.1668V19.1668C10.2469 19.1668 10.1532 19.1665 10.085 19.1631C10.0239 19.16 10.035 19.1561 10.0716 19.1668L9.51152 21.0868ZM8.21696 19.9152C8.44624 20.4834 8.92332 20.9152 9.51151 21.0868L10.0717 19.1668L10.0717 19.1668L8.21696 19.9152ZM8.04683 19.0183C8.07273 19.2773 8.09672 19.6173 8.21696 19.9152L10.0717 19.1668C10.0859 19.2022 10.0832 19.2137 10.074 19.1532C10.0638 19.0857 10.0542 18.9925 10.0369 18.8193L8.04683 19.0183ZM7.97524 18.3025C7.93613 18.2335 7.9481 18.2107 7.97203 18.3599C7.99465 18.5008 8.0147 18.6971 8.04683 19.0183L10.0369 18.8193C10.0073 18.5232 9.98105 18.2566 9.94676 18.0429C9.91379 17.8375 9.85826 17.5686 9.71498 17.3159L7.97524 18.3025ZM7.97524 18.3025L7.97524 18.3025L9.71498 17.3159C9.26278 16.5185 8.3263 16.1306 7.44266 16.3747L7.97524 18.3025ZM7.4184 18.7581C7.66828 18.5536 7.8213 18.429 7.93693 18.3453C8.0593 18.2568 8.05168 18.2814 7.97524 18.3025L7.44266 16.3747C7.16269 16.452 6.93327 16.6029 6.76467 16.7249C6.58933 16.8517 6.38223 17.0217 6.15193 17.2102L7.4184 18.7581ZM7.49226 18.6912L7.49227 18.6912L6.07806 17.277L6.07805 17.277L7.49226 18.6912ZM6.66379 19.272C6.95954 19.1464 7.21689 18.9229 7.41839 18.7581L6.15192 17.2102C6.01723 17.3204 5.9445 17.3795 5.88957 17.42C5.84028 17.4563 5.84644 17.4463 5.88157 17.4314L6.66379 19.272ZM4.92009 19.1851C5.45732 19.4796 6.09991 19.5117 6.66378 19.272L5.88157 17.4314L5.88157 17.4314L4.92009 19.1851ZM4.22037 18.5986C4.40446 18.7827 4.6383 19.0306 4.92009 19.1851L5.88157 17.4314C5.91505 17.4497 5.92018 17.4603 5.87475 17.4193C5.82412 17.3735 5.75765 17.3074 5.63459 17.1844L4.22037 18.5986ZM3.40143 17.7796L4.22037 18.5986L5.63459 17.1844L4.81564 16.3654L3.40143 17.7796ZM2.81501 17.08C2.96949 17.3618 3.21737 17.5956 3.40143 17.7796L4.81564 16.3654C4.6926 16.2424 4.62655 16.1759 4.58079 16.1253C4.53974 16.0799 4.55034 16.085 4.56869 16.1185L2.81501 17.08ZM2.72803 15.3362C2.48837 15.9001 2.52042 16.5428 2.81501 17.08L4.56869 16.1185L4.56869 16.1185L2.72803 15.3362ZM3.24193 14.5817C3.0771 14.7832 2.85371 15.0405 2.72803 15.3362L4.56869 16.1185C4.55376 16.1536 4.54372 16.1598 4.58005 16.1105C4.62055 16.0556 4.67966 15.9829 4.78984 15.8482L3.24193 14.5817ZM3.69748 14.0249C3.7186 13.9485 3.74315 13.9409 3.65463 14.0632C3.571 14.1788 3.44636 14.3318 3.24193 14.5817L4.78985 15.8482C4.97825 15.6179 5.14824 15.4108 5.27507 15.2355C5.39704 15.0669 5.54791 14.8375 5.62526 14.5575L3.69748 14.0249ZM3.69748 14.0249L3.69748 14.0249L5.62526 14.5575C5.86939 13.6739 5.48148 12.7374 4.68401 12.2852L3.69748 14.0249ZM2.98144 13.9533C3.30273 13.9854 3.49912 14.0055 3.64005 14.0281C3.78922 14.0521 3.76647 14.064 3.69748 14.0249L4.68401 12.2852C4.43135 12.1419 4.16241 12.0864 3.95695 12.0534C3.74326 12.0191 3.47658 11.9929 3.18045 11.9632L2.98144 13.9533ZM2.08406 13.7831C2.38216 13.9034 2.72226 13.9274 2.98144 13.9533L3.18045 11.9632C3.00719 11.9459 2.91391 11.9363 2.84638 11.9261C2.78579 11.9169 2.79726 11.9142 2.83268 11.9285L2.08406 13.7831ZM0.912787 12.4888C1.08441 13.0769 1.51604 13.5538 2.08406 13.7831L2.83268 11.9285L2.83268 11.9285L0.912787 12.4888ZM0.83268 11.5791C0.83268 11.8395 0.822718 12.1802 0.912787 12.4888L2.83268 11.9285C2.84338 11.9651 2.8395 11.9763 2.83642 11.9151C2.83297 11.8469 2.83268 11.7532 2.83268 11.5791H0.83268ZM0.83268 10.4212L0.83268 11.5791H2.83268V10.4212H0.83268ZM0.912781 9.51143C0.822718 9.82001 0.83268 10.1608 0.83268 10.4212H2.83268C2.83268 10.2471 2.83297 10.1533 2.83642 10.0852C2.8395 10.024 2.84338 10.0351 2.83268 10.0718L0.912781 9.51143ZM2.08408 8.21716C1.51604 8.44645 1.08441 8.9234 0.912781 9.51143L2.83268 10.0718H2.83268L2.08408 8.21716ZM2.98134 8.04693C2.72221 8.07285 2.38216 8.09684 2.08408 8.21716L2.83268 10.0718C2.79727 10.0861 2.7858 10.0833 2.84637 10.0742C2.91387 10.064 3.00713 10.0543 3.18035 10.037L2.98134 8.04693ZM3.08085 8.04197H3.08084V10.042H3.08085V8.04197ZM2.94107 8.05179L2.94106 8.05179L3.22064 10.0322L3.22065 10.0322L2.94107 8.05179ZM3.69744 7.97532C3.76643 7.93619 3.78919 7.94817 3.64003 7.97211C3.49909 7.99473 3.30269 8.0148 2.98136 8.04693L3.18036 10.037C3.47652 10.0074 3.74325 9.98114 3.95698 9.94684C4.16249 9.91385 4.43148 9.8583 4.68419 9.71496L3.69744 7.97532ZM3.69744 7.97532L3.69744 7.97533L4.68419 9.71496C5.48144 9.26274 5.86926 8.32646 5.62528 7.44296L3.69744 7.97532ZM3.24175 7.41838C3.44624 7.66831 3.57092 7.82136 3.65458 7.93701C3.74311 8.0594 3.71855 8.05178 3.69744 7.97533L5.62528 7.44295C5.54795 7.16291 5.39703 6.93343 5.27504 6.76479C5.14817 6.5894 4.97813 6.38225 4.78967 6.1519L3.24175 7.41838ZM2.72772 6.66365C2.85342 6.95947 3.07687 7.21686 3.24175 7.41838L4.78967 6.15191C4.67945 6.01719 4.62032 5.94446 4.57981 5.88952C4.54347 5.84023 4.55352 5.84639 4.56845 5.88153L2.72772 6.66365ZM2.81468 4.92012C2.5202 5.45731 2.48815 6.09983 2.72772 6.66365L4.56845 5.88153L2.81468 4.92012ZM3.40126 4.22029C3.21715 4.40441 2.96919 4.63828 2.81468 4.92012L4.56845 5.88153C4.5501 5.91501 4.53949 5.92014 4.58055 5.87471C4.62633 5.82407 4.6924 5.75758 4.81547 5.6345L3.40126 4.22029ZM4.22006 3.4015L3.40126 4.22029L4.81548 5.6345L5.63427 4.81571L4.22006 3.4015ZM4.22006 3.40149L4.22006 3.4015L5.63427 4.81571L5.63427 4.81571L4.22006 3.40149ZM4.92 2.81484C4.63811 2.96936 4.4042 3.21735 4.22006 3.40149L5.63427 4.81571C5.75737 4.69261 5.82386 4.62653 5.87451 4.58075C5.91995 4.53968 5.91482 4.55029 5.88133 4.56865L4.92 2.81484ZM6.66338 2.72789C6.0996 2.48837 5.45715 2.52041 4.92 2.81484L5.88133 4.56865L5.88133 4.56865L6.66338 2.72789ZM7.41831 3.24206C7.21672 3.07712 6.95925 2.85359 6.66338 2.72789L5.88133 4.56865C5.84617 4.55371 5.84001 4.54366 5.88933 4.58002C5.94431 4.62055 6.01707 4.67971 6.15184 4.78997L7.41831 3.24206ZM7.44359 3.26344L7.44358 3.26344L6.12657 4.76859L6.12658 4.7686L7.44359 3.26344ZM7.97525 3.69774C8.0517 3.71886 8.05931 3.74342 7.93691 3.65486C7.82127 3.5712 7.66822 3.44653 7.41832 3.24206L6.15184 4.78998C6.38217 4.97843 6.58929 5.14843 6.76463 5.27528C6.93321 5.39724 7.16263 5.54814 7.44258 5.6255L7.97525 3.69774ZM7.97525 3.69774L7.97525 3.69774L7.44258 5.6255C8.32628 5.86968 9.26284 5.48174 9.71504 4.68421L7.97525 3.69774ZM8.04683 2.98197C8.01471 3.30317 7.99465 3.49948 7.97205 3.64036C7.94812 3.78945 7.93614 3.76671 7.97525 3.69774L9.71504 4.68421C9.85829 4.43158 9.91381 4.16271 9.94678 3.95727C9.98106 3.74362 10.0073 3.47701 10.0369 3.18098L8.04683 2.98197ZM8.04187 3.08147V3.08148H10.0419V3.08147H8.04187ZM8.21694 2.08515C8.09671 2.3831 8.07273 2.72298 8.04683 2.98197L10.0369 3.18097C10.0542 3.00784 10.0638 2.91464 10.074 2.84717C10.0832 2.78665 10.0859 2.7981 10.0717 2.8335L8.21694 2.08515ZM9.51157 0.91352C8.92333 1.08512 8.44621 1.5169 8.21693 2.08515L10.0717 2.8335V2.8335L9.51157 0.91352ZM10.4209 0.833496C10.1606 0.833496 9.82001 0.823544 9.51157 0.91352L10.0717 2.8335C10.035 2.84418 10.0239 2.84031 10.085 2.83723C10.1532 2.83379 10.2469 2.8335 10.4209 2.8335V0.833496ZM11.5791 0.833496H10.4209V2.8335H11.5791V0.833496ZM12.4884 0.913514C12.18 0.823545 11.8394 0.833496 11.5791 0.833496V2.8335C11.7531 2.8335 11.8468 2.83379 11.915 2.83723C11.9761 2.84031 11.965 2.84418 11.9283 2.8335L12.4884 0.913514ZM13.7831 2.08517C13.5538 1.51691 13.0767 1.08511 12.4884 0.913514L11.9283 2.8335L11.9283 2.8335L13.7831 2.08517ZM13.9532 2.98196C13.9273 2.72298 13.9033 2.38311 13.7831 2.08517L11.9283 2.8335C11.9141 2.7981 11.9168 2.78665 11.926 2.84717C11.9362 2.91464 11.9458 3.00784 11.9631 3.18096L13.9532 2.98196ZM13.6663 11.0002C13.6663 12.4729 12.4724 13.6668 10.9997 13.6668V15.6668C13.577 15.6668 15.6663 13.5775 15.6663 11.0002H13.6663ZM10.9997 8.3335C12.4724 8.3335 13.6663 9.5274 13.6663 11.0002H15.6663C15.6663 8.42283 13.577 6.3335 10.9997 6.3335V8.3335ZM8.33301 11.0002C8.33301 9.5274 9.52691 8.3335 10.9997 8.3335V6.3335C8.42234 6.3335 6.33301 8.42283 6.33301 11.0002H8.33301ZM10.9997 13.6668C9.52691 13.6668 8.33301 12.4729 8.33301 11.0002H6.33301C6.33301 13.5775 8.42234 15.6668 10.9997 15.6668V13.6668Z" fill="#0096FF"/>
</svg>
