<svg xmlns="http://www.w3.org/2000/svg" xmlns:xlink="http://www.w3.org/1999/xlink" width="0" height="0" style="display:none;"><symbol viewBox="0 0 52 52" id="font-icon-Box_open_light">
<path d="M45.5647 10.7853C45.5621 10.7678 45.5504 10.7538 45.5472 10.7365C45.5275 10.6554 45.5013 10.5846 45.4682 10.5179L45.4709 10.5238C45.4465 10.4571 45.4192 10.4002 45.3873 10.3465L45.39 10.3513C45.3433 10.2883 45.2924 10.233 45.2362 10.1838L45.2349 10.1827C45.2029 10.1425 45.1698 10.1065 45.1344 10.0731L45.1338 10.0726L45.1004 10.0573C45.0375 10.0193 44.9649 9.98564 44.8884 9.96055L44.8809 9.95844C44.8331 9.93541 44.7763 9.9139 44.7175 9.89723L44.7098 9.89535L44.6695 9.88047L26.1627 7.01255C26.1137 7.00448 26.0574 7 26 7C25.9426 7 25.8863 7.00448 25.8313 7.01335L25.8374 7.01255L7.29221 9.89409C7.21524 9.9139 7.14828 9.93935 7.08506 9.97117L7.09093 9.96848C7.01739 9.99429 6.95426 10.0241 6.89486 10.0596L6.89975 10.0569L6.86621 10.0723C6.83124 10.1055 6.79903 10.1406 6.76922 10.1778L6.76771 10.1798C6.70898 10.2311 6.6571 10.2875 6.61172 10.3491L6.60972 10.3519C6.58067 10.4007 6.55353 10.4576 6.53159 10.517L6.52919 10.5243C6.49916 10.5841 6.47327 10.654 6.45507 10.7268L6.45356 10.734C6.44986 10.752 6.4379 10.7669 6.43514 10.7851L5.01143 20.4643C5.00414 20.5115 5 20.5659 5 20.6213C5 21.1392 5.36318 21.5716 5.84697 21.6744L5.85395 21.6756L7.91076 22.0997C7.87561 22.1928 7.85283 22.3006 7.84758 22.4129V40.3404C7.84758 40.8564 8.20854 41.2875 8.69002 41.3915L8.697 41.3927L25.7814 44.9776C25.8471 44.9918 25.9225 45 25.9997 45C26.0769 45 26.1523 44.9918 26.2251 44.9763L26.2179 44.9776L43.301 41.3926C43.7901 41.2875 44.1516 40.8561 44.1519 40.3396V22.415C44.1466 22.3004 44.1239 22.1927 44.0863 22.0924L44.0887 22.0996L46.1457 21.6758C46.6365 21.5729 47 21.1408 47 20.6233C47 20.5673 46.9957 20.5122 46.9875 20.4584L46.9883 20.4645L45.5647 10.7853ZM25.9999 9.16367L37.8897 11.0059L25.9999 13.0792L14.111 11.0059L25.9999 9.16367ZM8.38712 12.1913L24.4677 14.9948L21.1017 22.6226L7.27205 19.7727L8.38712 12.1913ZM9.98323 22.5266L21.5146 24.9023C21.5803 24.9169 21.6557 24.9252 21.7331 24.9252C22.1648 24.9252 22.5363 24.6656 22.7021 24.2929L22.7049 24.2861L24.9321 19.2381V42.6028L9.98323 39.466V22.5266ZM42.0165 39.466L27.0677 42.6028V19.2381L29.295 24.2861C29.4663 24.6649 29.8385 24.9237 30.2709 24.9247H30.2714C30.3471 24.9247 30.4209 24.9165 30.4919 24.901L30.4851 24.9023L42.0165 22.5266V39.466ZM30.8994 22.6227L27.5321 14.9949L43.6127 12.1913L44.7277 19.7728L30.8994 22.6227Z" fill="#777777"></path>
</symbol><symbol viewBox="0 0 22 22" id="font-icon-Setting_line">
<path d="M12.9581 3.08148L13.9532 2.98198L13.952 2.97064L13.9506 2.95933L12.9581 3.08148ZM12.9581 3.08146L11.9631 3.18096L11.9642 3.1923L11.9656 3.20362L12.9581 3.08146ZM13.1548 4.19088L12.2849 4.68406V4.68406L13.1548 4.19088ZM14.2911 4.66156L14.5575 5.62542L14.2911 4.66156ZM15.2146 4.01621L14.5814 3.24225L14.5814 3.24225L15.2146 4.01621ZM15.7269 3.64876L15.3357 2.72845V2.72845L15.7269 3.64876ZM16.5989 3.69225L16.1181 4.56906V4.56906L16.5989 3.69225ZM17.8912 4.92791L17.1841 5.63501L17.1841 5.63501L17.8912 4.92791ZM18.3078 5.40115L19.1846 4.92035V4.92035L18.3078 5.40115ZM18.3513 6.27311L19.2716 6.66427L19.2716 6.66427L18.3513 6.27311ZM17.9837 6.78554L18.7577 7.41877L18.7577 7.41877L17.9837 6.78554ZM17.3384 7.70891L16.3746 7.44239L16.3746 7.44239L17.3384 7.70891ZM17.8092 8.84541L17.3161 9.7154L17.3161 9.7154L17.8092 8.84541ZM18.9182 9.04201L19.0177 8.04697H19.0177L18.9182 9.04201ZM19.5401 9.14437L19.9141 8.21696L19.9141 8.21696L19.5401 9.14437ZM20.126 9.79186L21.0861 9.51194V9.51194L20.126 9.79186ZM20.126 12.2084L21.0861 12.4883L21.0861 12.4883L20.126 12.2084ZM19.5401 12.8559L19.166 11.9285L19.166 11.9285L19.5401 12.8559ZM18.9182 12.9582L19.0177 13.9533L18.9182 12.9582ZM17.8091 13.1548L18.3022 14.0248L18.3022 14.0248L17.8091 13.1548ZM17.3384 14.2913L18.3022 14.0248V14.0248L17.3384 14.2913ZM17.9836 15.2146L17.2097 15.8478V15.8478L17.9836 15.2146ZM18.351 15.7268L19.2713 15.3356L19.2713 15.3356L18.351 15.7268ZM18.3075 16.5989L19.1843 17.0798L19.1843 17.0798L18.3075 16.5989ZM17.891 17.072L17.1839 16.3649L17.1839 16.3649L17.891 17.072ZM17.0718 17.8912L17.7789 18.5983L17.7789 18.5983L17.0718 17.8912ZM16.5988 18.3077L16.1179 17.4309L16.1179 17.4309L16.5988 18.3077ZM15.7266 18.3512L15.3353 19.2715L15.3353 19.2715L15.7266 18.3512ZM15.2145 17.9839L15.8477 17.2099L15.8477 17.2099L15.2145 17.9839ZM14.2913 17.3387L14.0248 18.3025H14.0248L14.2913 17.3387ZM13.1548 17.8094L14.0248 18.3025L13.1548 17.8094ZM12.9581 18.9187L13.9504 19.0427L13.952 19.0305L13.9532 19.0182L12.9581 18.9187ZM12.9581 18.9187L11.9659 18.7947L11.9643 18.8069L11.9631 18.8192L12.9581 18.9187ZM12.8557 19.541L11.9283 19.1668L11.9283 19.1668L12.8557 19.541ZM12.2084 20.1268L11.9283 19.1668L11.9283 19.1668L12.2084 20.1268ZM9.79158 20.1268L9.51151 21.0868L9.51152 21.0868L9.79158 20.1268ZM9.14431 19.541L8.21696 19.9152L9.14431 19.541ZM9.04186 18.9188L10.0369 18.8193V18.8193L9.04186 18.9188ZM8.84511 17.8092L9.71498 17.3159L9.71498 17.3159L8.84511 17.8092ZM7.70895 17.3386L7.44266 16.3747L7.44266 16.3747L7.70895 17.3386ZM6.78517 17.9841L6.15193 17.2102L6.11333 17.2417L6.07806 17.277L6.78517 17.9841ZM6.78515 17.9841L7.41839 18.7581L7.45699 18.7265L7.49226 18.6912L6.78515 17.9841ZM6.27268 18.3517L6.66378 19.272L6.66379 19.272L6.27268 18.3517ZM5.40083 18.3082L5.88157 17.4314L5.88157 17.4314L5.40083 18.3082ZM4.92748 17.8915L4.22037 18.5986L4.22037 18.5986L4.92748 17.8915ZM4.10854 17.0725L4.81564 16.3654H4.81564L4.10854 17.0725ZM3.69185 16.5993L2.81501 17.08L2.81501 17.08L3.69185 16.5993ZM3.64836 15.7273L2.72803 15.3362L2.72803 15.3362L3.64836 15.7273ZM4.01589 15.2149L4.78984 15.8482L4.78985 15.8482L4.01589 15.2149ZM4.66137 14.2912L3.69748 14.0249L3.69748 14.0249L4.66137 14.2912ZM4.19074 13.155L3.69748 14.0249L3.69748 14.0249L4.19074 13.155ZM3.08094 12.9583L3.18045 11.9632H3.18045L3.08094 12.9583ZM2.45837 12.8558L2.08406 13.7831H2.08406L2.45837 12.8558ZM1.87273 12.2087L2.83268 11.9285L2.83268 11.9285L1.87273 12.2087ZM1.83268 11.5791H2.83268H1.83268ZM1.83268 10.4212H0.83268H1.83268ZM1.87273 9.7916L2.83268 10.0718L2.83268 10.0718L1.87273 9.7916ZM2.45838 9.14447L2.08408 8.21716L2.08408 8.21716L2.45838 9.14447ZM3.08084 9.04197V8.04197H3.03097L2.98134 8.04693L3.08084 9.04197ZM3.08085 9.04197V10.042H3.15109L3.22064 10.0322L3.08085 9.04197ZM3.08086 9.04197L2.98136 8.04693L2.96116 8.04895L2.94107 8.05179L3.08086 9.04197ZM4.19081 8.84514L4.68419 9.71496L4.68419 9.71496L4.19081 8.84514ZM4.66136 7.70914L5.62528 7.44296V7.44295L4.66136 7.70914ZM4.01571 6.78514L3.24175 7.41838L3.24175 7.41838L4.01571 6.78514ZM3.64809 6.27259L2.72772 6.66365L2.72772 6.66365L3.64809 6.27259ZM3.69157 5.40083L2.81468 4.92012H2.81468L3.69157 5.40083ZM4.10837 4.9274L4.81547 5.6345L4.81548 5.6345L4.10837 4.9274ZM5.40067 3.69174L4.92 2.81484L4.92 2.81484L5.40067 3.69174ZM6.27235 3.64827L5.88133 4.56865L5.88133 4.56865L6.27235 3.64827ZM6.78508 4.01602L7.44358 3.26344L7.43112 3.25254L7.41831 3.24206L6.78508 4.01602ZM6.78508 4.01602L6.12658 4.7686L6.13903 4.7795L6.15184 4.78998L6.78508 4.01602ZM7.70892 4.66162L7.97525 3.69774L7.97525 3.69774L7.70892 4.66162ZM8.84515 4.19097L9.71504 4.68421L9.71504 4.68421L8.84515 4.19097ZM9.04187 3.08148L10.0369 3.18098L10.0419 3.13135V3.08148H9.04187ZM9.04187 3.08147L8.04683 2.98197L8.04187 3.0316V3.08147H9.04187ZM9.14429 2.45932L10.0717 2.8335L10.0717 2.8335L9.14429 2.45932ZM9.79161 1.87351L9.51157 0.91352L9.51157 0.91352L9.79161 1.87351ZM12.2084 1.8735L12.4884 0.913514L12.4884 0.913514L12.2084 1.8735ZM12.8557 2.45933L11.9283 2.8335L11.9283 2.8335L12.8557 2.45933ZM13.9506 2.95933L13.9506 2.95931L11.9656 3.20362L11.9656 3.20364L13.9506 2.95933ZM14.0247 3.6977C14.0638 3.76667 14.0519 3.7894 14.0279 3.64032C14.0053 3.49944 13.9853 3.30315 13.9532 2.98198L11.9631 3.18099C11.9927 3.47699 12.0189 3.74358 12.0532 3.9572C12.0862 4.16261 12.1417 4.43146 12.2849 4.68406L14.0247 3.6977ZM14.0247 3.6977V3.6977L12.2849 4.68406C12.7371 5.4817 13.6738 5.86968 14.5575 5.62542L14.0247 3.6977ZM14.5814 3.24225C14.3316 3.44663 14.1786 3.57124 14.063 3.65486C13.9407 3.74336 13.9483 3.71881 14.0247 3.6977L14.5575 5.62542C14.8374 5.54807 15.0668 5.39722 15.2353 5.27529C15.4106 5.14848 15.6176 4.97853 15.8479 4.79017L14.5814 3.24225ZM15.3357 2.72845C15.0401 2.85412 14.7828 3.07745 14.5814 3.24225L15.8479 4.79017C15.9825 4.68 16.0552 4.62091 16.1101 4.58042C16.1594 4.54409 16.1532 4.55414 16.1181 4.56906L15.3357 2.72845ZM17.0798 2.81544C16.5424 2.52078 15.8997 2.48872 15.3357 2.72845L16.1181 4.56906V4.56906L17.0798 2.81544ZM17.7792 3.40174C17.5952 3.21772 17.3614 2.9699 17.0798 2.81544L16.1181 4.56906C16.0846 4.55072 16.0795 4.54011 16.1249 4.58116C16.1755 4.62691 16.242 4.69294 16.365 4.81596L17.7792 3.40174ZM18.5983 4.2208L17.7792 3.40174L16.365 4.81596L17.1841 5.63501L18.5983 4.2208ZM19.1846 4.92035C19.0302 4.63863 18.7823 4.40485 18.5983 4.2208L17.1841 5.63501C17.3071 5.75805 17.3731 5.82451 17.4189 5.87512C17.4599 5.92054 17.4493 5.91541 17.431 5.88194L19.1846 4.92035ZM19.2716 6.66427C19.5113 6.10033 19.4793 5.45764 19.1846 4.92035L17.431 5.88194V5.88194L19.2716 6.66427ZM18.7577 7.41877C18.9226 7.21729 19.1459 6.95996 19.2716 6.66427L17.431 5.88194C17.4459 5.8468 17.456 5.84065 17.4196 5.88994C17.3791 5.94488 17.32 6.01761 17.2098 6.1523L18.7577 7.41877ZM18.3023 7.97543C18.2811 8.05184 18.2566 8.05944 18.3451 7.9371C18.4287 7.82152 18.5533 7.66855 18.7577 7.41877L17.2098 6.1523C17.0214 6.38251 16.8515 6.58953 16.7247 6.76478C16.6028 6.93329 16.452 7.16259 16.3746 7.44239L18.3023 7.97543ZM18.3023 7.97543V7.97542L16.3746 7.44239C16.1302 8.32631 16.5182 9.2632 17.3161 9.7154L18.3023 7.97543ZM19.0177 8.04697C18.6966 8.01486 18.5004 7.99482 18.3596 7.97222C18.2106 7.94831 18.2333 7.93635 18.3023 7.97542L17.3161 9.7154C17.5687 9.85853 17.8374 9.91402 18.0428 9.94696C18.2563 9.98123 18.5228 10.0075 18.8187 10.037L19.0177 8.04697ZM19.9141 8.21696C19.6163 8.09684 19.2766 8.07286 19.0177 8.04697L18.8187 10.037C18.9917 10.0543 19.0849 10.064 19.1523 10.0742C19.2128 10.0833 19.2014 10.086 19.166 10.0718L19.9141 8.21696ZM21.0861 9.51194C20.9145 8.92351 20.4826 8.44624 19.9141 8.21696L19.166 10.0718L19.166 10.0718L21.0861 9.51194ZM21.166 10.4208C21.166 10.1607 21.176 9.82025 21.0861 9.51194L19.166 10.0718C19.1553 10.0352 19.1592 10.024 19.1623 10.0851C19.1657 10.1533 19.166 10.2469 19.166 10.4208H21.166ZM21.166 11.5794V10.4208H19.166V11.5794H21.166ZM21.0861 12.4883C21.176 12.18 21.166 11.8396 21.166 11.5794H19.166C19.166 11.7533 19.1657 11.847 19.1623 11.9151C19.1592 11.9762 19.1553 11.9651 19.166 11.9285L21.0861 12.4883ZM19.9141 13.7833C20.4826 13.554 20.9145 13.0767 21.0861 12.4883L19.166 11.9285L19.166 11.9285L19.9141 13.7833ZM19.0177 13.9533C19.2766 13.9274 19.6163 13.9034 19.9141 13.7833L19.166 11.9285C19.2014 11.9142 19.2128 11.9169 19.1523 11.9261C19.0849 11.9363 18.9917 11.9459 18.8187 11.9632L19.0177 13.9533ZM18.3022 14.0248C18.2333 14.0639 18.2105 14.0519 18.3596 14.028C18.5004 14.0054 18.6966 13.9854 19.0177 13.9533L18.8187 11.9632C18.5228 11.9928 18.2563 12.019 18.0427 12.0533C17.8374 12.0862 17.5686 12.1417 17.316 12.2849L18.3022 14.0248ZM18.3022 14.0248V14.0248L17.316 12.2849C16.5182 12.7371 16.1301 13.6739 16.3745 14.5578L18.3022 14.0248ZM18.7576 14.5814C18.5532 14.3316 18.4286 14.1787 18.345 14.0631C18.2566 13.9408 18.2811 13.9484 18.3022 14.0248L16.3745 14.5578C16.4519 14.8376 16.6027 15.0669 16.7246 15.2354C16.8514 15.4107 17.0213 15.6177 17.2097 15.8478L18.7576 14.5814ZM19.2713 15.3356C19.1457 15.04 18.9224 14.7828 18.7576 14.5814L17.2097 15.8478C17.3198 15.9825 17.3789 16.0552 17.4194 16.1101C17.4557 16.1593 17.4457 16.1532 17.4307 16.1181L19.2713 15.3356ZM19.1843 17.0798C19.479 16.5424 19.5111 15.8996 19.2713 15.3356L17.4307 16.1181L17.4307 16.1181L19.1843 17.0798ZM18.5981 17.7791C18.7821 17.5951 19.0299 17.3614 19.1843 17.0798L17.4307 16.1181C17.4491 16.0846 17.4597 16.0795 17.4187 16.1249C17.3729 16.1755 17.3069 16.2419 17.1839 16.3649L18.5981 17.7791ZM17.7789 18.5983L18.5981 17.7791L17.1839 16.3649L16.3647 17.1841L17.7789 18.5983ZM17.7789 18.5983L17.7789 18.5983L16.3647 17.1841L16.3647 17.1841L17.7789 18.5983ZM17.0797 19.1845C17.3612 19.03 17.5949 18.7823 17.7789 18.5983L16.3647 17.1841C16.2417 17.3071 16.1753 17.3731 16.1247 17.4189C16.0793 17.4599 16.0844 17.4493 16.1179 17.4309L17.0797 19.1845ZM15.3353 19.2715C15.8994 19.5113 16.5423 19.4792 17.0797 19.1845L16.1179 17.4309L16.1179 17.4309L15.3353 19.2715ZM14.5812 18.7578C14.7826 18.9226 15.0398 19.1458 15.3353 19.2715L16.1179 17.4309C16.153 17.4459 16.1591 17.4559 16.1099 17.4196C16.055 17.3791 15.9823 17.32 15.8477 17.2099L14.5812 18.7578ZM14.0248 18.3025C13.9484 18.2814 13.9408 18.2569 14.063 18.3453C14.1786 18.4289 14.3315 18.5535 14.5812 18.7578L15.8477 17.2099C15.6176 17.0216 15.4106 16.8517 15.2353 16.7249C15.0668 16.603 14.8376 16.4522 14.5578 16.3749L14.0248 18.3025ZM14.0248 18.3025L14.5578 16.3749C13.6739 16.1304 12.737 16.5185 12.2848 17.3164L14.0248 18.3025ZM13.9532 19.0182C13.9853 18.6971 14.0053 18.5008 14.028 18.3599C14.0519 18.2108 14.0638 18.2335 14.0248 18.3025L12.2848 17.3164C12.1416 17.5689 12.0862 17.8377 12.0532 18.0431C12.0189 18.2567 11.9927 18.5232 11.9631 18.8192L13.9532 19.0182ZM13.9504 19.0427L13.9504 19.0427L11.9659 18.7946L11.9659 18.7947L13.9504 19.0427ZM13.783 19.9152C13.9033 19.6172 13.9273 19.2773 13.9532 19.0182L11.9631 18.8192C11.9458 18.9924 11.9362 19.0856 11.926 19.1531C11.9168 19.2137 11.9141 19.2022 11.9283 19.1668L13.783 19.9152ZM12.4885 21.0868C13.0767 20.9152 13.5538 20.4834 13.783 19.9152L11.9283 19.1668L11.9283 19.1668L12.4885 21.0868ZM11.5791 21.1668C11.8394 21.1668 12.18 21.1768 12.4885 21.0868L11.9283 19.1668C11.965 19.1561 11.9761 19.16 11.915 19.1631C11.8468 19.1665 11.7531 19.1668 11.5791 19.1668V21.1668ZM10.4209 21.1668H11.5791V19.1668H10.4209V21.1668ZM9.51152 21.0868C9.81998 21.1768 10.1606 21.1668 10.4209 21.1668V19.1668C10.2469 19.1668 10.1532 19.1665 10.085 19.1631C10.0239 19.16 10.035 19.1561 10.0716 19.1668L9.51152 21.0868ZM8.21696 19.9152C8.44624 20.4834 8.92332 20.9152 9.51151 21.0868L10.0717 19.1668L10.0717 19.1668L8.21696 19.9152ZM8.04683 19.0183C8.07273 19.2773 8.09672 19.6173 8.21696 19.9152L10.0717 19.1668C10.0859 19.2022 10.0832 19.2137 10.074 19.1532C10.0638 19.0857 10.0542 18.9925 10.0369 18.8193L8.04683 19.0183ZM7.97524 18.3025C7.93613 18.2335 7.9481 18.2107 7.97203 18.3599C7.99465 18.5008 8.0147 18.6971 8.04683 19.0183L10.0369 18.8193C10.0073 18.5232 9.98105 18.2566 9.94676 18.0429C9.91379 17.8375 9.85826 17.5686 9.71498 17.3159L7.97524 18.3025ZM7.97524 18.3025L7.97524 18.3025L9.71498 17.3159C9.26278 16.5185 8.3263 16.1306 7.44266 16.3747L7.97524 18.3025ZM7.4184 18.7581C7.66828 18.5536 7.8213 18.429 7.93693 18.3453C8.0593 18.2568 8.05168 18.2814 7.97524 18.3025L7.44266 16.3747C7.16269 16.452 6.93327 16.6029 6.76467 16.7249C6.58933 16.8517 6.38223 17.0217 6.15193 17.2102L7.4184 18.7581ZM7.49226 18.6912L7.49227 18.6912L6.07806 17.277L6.07805 17.277L7.49226 18.6912ZM6.66379 19.272C6.95954 19.1464 7.21689 18.9229 7.41839 18.7581L6.15192 17.2102C6.01723 17.3204 5.9445 17.3795 5.88957 17.42C5.84028 17.4563 5.84644 17.4463 5.88157 17.4314L6.66379 19.272ZM4.92009 19.1851C5.45732 19.4796 6.09991 19.5117 6.66378 19.272L5.88157 17.4314L5.88157 17.4314L4.92009 19.1851ZM4.22037 18.5986C4.40446 18.7827 4.6383 19.0306 4.92009 19.1851L5.88157 17.4314C5.91505 17.4497 5.92018 17.4603 5.87475 17.4193C5.82412 17.3735 5.75765 17.3074 5.63459 17.1844L4.22037 18.5986ZM3.40143 17.7796L4.22037 18.5986L5.63459 17.1844L4.81564 16.3654L3.40143 17.7796ZM2.81501 17.08C2.96949 17.3618 3.21737 17.5956 3.40143 17.7796L4.81564 16.3654C4.6926 16.2424 4.62655 16.1759 4.58079 16.1253C4.53974 16.0799 4.55034 16.085 4.56869 16.1185L2.81501 17.08ZM2.72803 15.3362C2.48837 15.9001 2.52042 16.5428 2.81501 17.08L4.56869 16.1185L4.56869 16.1185L2.72803 15.3362ZM3.24193 14.5817C3.0771 14.7832 2.85371 15.0405 2.72803 15.3362L4.56869 16.1185C4.55376 16.1536 4.54372 16.1598 4.58005 16.1105C4.62055 16.0556 4.67966 15.9829 4.78984 15.8482L3.24193 14.5817ZM3.69748 14.0249C3.7186 13.9485 3.74315 13.9409 3.65463 14.0632C3.571 14.1788 3.44636 14.3318 3.24193 14.5817L4.78985 15.8482C4.97825 15.6179 5.14824 15.4108 5.27507 15.2355C5.39704 15.0669 5.54791 14.8375 5.62526 14.5575L3.69748 14.0249ZM3.69748 14.0249L3.69748 14.0249L5.62526 14.5575C5.86939 13.6739 5.48148 12.7374 4.68401 12.2852L3.69748 14.0249ZM2.98144 13.9533C3.30273 13.9854 3.49912 14.0055 3.64005 14.0281C3.78922 14.0521 3.76647 14.064 3.69748 14.0249L4.68401 12.2852C4.43135 12.1419 4.16241 12.0864 3.95695 12.0534C3.74326 12.0191 3.47658 11.9929 3.18045 11.9632L2.98144 13.9533ZM2.08406 13.7831C2.38216 13.9034 2.72226 13.9274 2.98144 13.9533L3.18045 11.9632C3.00719 11.9459 2.91391 11.9363 2.84638 11.9261C2.78579 11.9169 2.79726 11.9142 2.83268 11.9285L2.08406 13.7831ZM0.912787 12.4888C1.08441 13.0769 1.51604 13.5538 2.08406 13.7831L2.83268 11.9285L2.83268 11.9285L0.912787 12.4888ZM0.83268 11.5791C0.83268 11.8395 0.822718 12.1802 0.912787 12.4888L2.83268 11.9285C2.84338 11.9651 2.8395 11.9763 2.83642 11.9151C2.83297 11.8469 2.83268 11.7532 2.83268 11.5791H0.83268ZM0.83268 10.4212L0.83268 11.5791H2.83268V10.4212H0.83268ZM0.912781 9.51143C0.822718 9.82001 0.83268 10.1608 0.83268 10.4212H2.83268C2.83268 10.2471 2.83297 10.1533 2.83642 10.0852C2.8395 10.024 2.84338 10.0351 2.83268 10.0718L0.912781 9.51143ZM2.08408 8.21716C1.51604 8.44645 1.08441 8.9234 0.912781 9.51143L2.83268 10.0718H2.83268L2.08408 8.21716ZM2.98134 8.04693C2.72221 8.07285 2.38216 8.09684 2.08408 8.21716L2.83268 10.0718C2.79727 10.0861 2.7858 10.0833 2.84637 10.0742C2.91387 10.064 3.00713 10.0543 3.18035 10.037L2.98134 8.04693ZM3.08085 8.04197H3.08084V10.042H3.08085V8.04197ZM2.94107 8.05179L2.94106 8.05179L3.22064 10.0322L3.22065 10.0322L2.94107 8.05179ZM3.69744 7.97532C3.76643 7.93619 3.78919 7.94817 3.64003 7.97211C3.49909 7.99473 3.30269 8.0148 2.98136 8.04693L3.18036 10.037C3.47652 10.0074 3.74325 9.98114 3.95698 9.94684C4.16249 9.91385 4.43148 9.8583 4.68419 9.71496L3.69744 7.97532ZM3.69744 7.97532L3.69744 7.97533L4.68419 9.71496C5.48144 9.26274 5.86926 8.32646 5.62528 7.44296L3.69744 7.97532ZM3.24175 7.41838C3.44624 7.66831 3.57092 7.82136 3.65458 7.93701C3.74311 8.0594 3.71855 8.05178 3.69744 7.97533L5.62528 7.44295C5.54795 7.16291 5.39703 6.93343 5.27504 6.76479C5.14817 6.5894 4.97813 6.38225 4.78967 6.1519L3.24175 7.41838ZM2.72772 6.66365C2.85342 6.95947 3.07687 7.21686 3.24175 7.41838L4.78967 6.15191C4.67945 6.01719 4.62032 5.94446 4.57981 5.88952C4.54347 5.84023 4.55352 5.84639 4.56845 5.88153L2.72772 6.66365ZM2.81468 4.92012C2.5202 5.45731 2.48815 6.09983 2.72772 6.66365L4.56845 5.88153L2.81468 4.92012ZM3.40126 4.22029C3.21715 4.40441 2.96919 4.63828 2.81468 4.92012L4.56845 5.88153C4.5501 5.91501 4.53949 5.92014 4.58055 5.87471C4.62633 5.82407 4.6924 5.75758 4.81547 5.6345L3.40126 4.22029ZM4.22006 3.4015L3.40126 4.22029L4.81548 5.6345L5.63427 4.81571L4.22006 3.4015ZM4.22006 3.40149L4.22006 3.4015L5.63427 4.81571L5.63427 4.81571L4.22006 3.40149ZM4.92 2.81484C4.63811 2.96936 4.4042 3.21735 4.22006 3.40149L5.63427 4.81571C5.75737 4.69261 5.82386 4.62653 5.87451 4.58075C5.91995 4.53968 5.91482 4.55029 5.88133 4.56865L4.92 2.81484ZM6.66338 2.72789C6.0996 2.48837 5.45715 2.52041 4.92 2.81484L5.88133 4.56865L5.88133 4.56865L6.66338 2.72789ZM7.41831 3.24206C7.21672 3.07712 6.95925 2.85359 6.66338 2.72789L5.88133 4.56865C5.84617 4.55371 5.84001 4.54366 5.88933 4.58002C5.94431 4.62055 6.01707 4.67971 6.15184 4.78997L7.41831 3.24206ZM7.44359 3.26344L7.44358 3.26344L6.12657 4.76859L6.12658 4.7686L7.44359 3.26344ZM7.97525 3.69774C8.0517 3.71886 8.05931 3.74342 7.93691 3.65486C7.82127 3.5712 7.66822 3.44653 7.41832 3.24206L6.15184 4.78998C6.38217 4.97843 6.58929 5.14843 6.76463 5.27528C6.93321 5.39724 7.16263 5.54814 7.44258 5.6255L7.97525 3.69774ZM7.97525 3.69774L7.97525 3.69774L7.44258 5.6255C8.32628 5.86968 9.26284 5.48174 9.71504 4.68421L7.97525 3.69774ZM8.04683 2.98197C8.01471 3.30317 7.99465 3.49948 7.97205 3.64036C7.94812 3.78945 7.93614 3.76671 7.97525 3.69774L9.71504 4.68421C9.85829 4.43158 9.91381 4.16271 9.94678 3.95727C9.98106 3.74362 10.0073 3.47701 10.0369 3.18098L8.04683 2.98197ZM8.04187 3.08147V3.08148H10.0419V3.08147H8.04187ZM8.21694 2.08515C8.09671 2.3831 8.07273 2.72298 8.04683 2.98197L10.0369 3.18097C10.0542 3.00784 10.0638 2.91464 10.074 2.84717C10.0832 2.78665 10.0859 2.7981 10.0717 2.8335L8.21694 2.08515ZM9.51157 0.91352C8.92333 1.08512 8.44621 1.5169 8.21693 2.08515L10.0717 2.8335V2.8335L9.51157 0.91352ZM10.4209 0.833496C10.1606 0.833496 9.82001 0.823544 9.51157 0.91352L10.0717 2.8335C10.035 2.84418 10.0239 2.84031 10.085 2.83723C10.1532 2.83379 10.2469 2.8335 10.4209 2.8335V0.833496ZM11.5791 0.833496H10.4209V2.8335H11.5791V0.833496ZM12.4884 0.913514C12.18 0.823545 11.8394 0.833496 11.5791 0.833496V2.8335C11.7531 2.8335 11.8468 2.83379 11.915 2.83723C11.9761 2.84031 11.965 2.84418 11.9283 2.8335L12.4884 0.913514ZM13.7831 2.08517C13.5538 1.51691 13.0767 1.08511 12.4884 0.913514L11.9283 2.8335L11.9283 2.8335L13.7831 2.08517ZM13.9532 2.98196C13.9273 2.72298 13.9033 2.38311 13.7831 2.08517L11.9283 2.8335C11.9141 2.7981 11.9168 2.78665 11.926 2.84717C11.9362 2.91464 11.9458 3.00784 11.9631 3.18096L13.9532 2.98196ZM13.6663 11.0002C13.6663 12.4729 12.4724 13.6668 10.9997 13.6668V15.6668C13.577 15.6668 15.6663 13.5775 15.6663 11.0002H13.6663ZM10.9997 8.3335C12.4724 8.3335 13.6663 9.5274 13.6663 11.0002H15.6663C15.6663 8.42283 13.577 6.3335 10.9997 6.3335V8.3335ZM8.33301 11.0002C8.33301 9.5274 9.52691 8.3335 10.9997 8.3335V6.3335C8.42234 6.3335 6.33301 8.42283 6.33301 11.0002H8.33301ZM10.9997 13.6668C9.52691 13.6668 8.33301 12.4729 8.33301 11.0002H6.33301C6.33301 13.5775 8.42234 15.6668 10.9997 15.6668V13.6668Z" fill="#0096FF"></path>
</symbol><symbol viewBox="0 0 16 17" id="font-icon-ic_add">
<path fill-rule="evenodd" clip-rule="evenodd" d="M8.99634 3.37719C8.99634 2.83718 8.55857 2.39941 8.01856 2.39941C7.47855 2.39941 7.04078 2.83718 7.04078 3.37719V7.28955H3.12988C2.58987 7.28955 2.1521 7.72732 2.1521 8.26733C2.1521 8.80734 2.58987 9.24511 3.12988 9.24511H7.04078V13.155C7.04078 13.695 7.47855 14.1327 8.01856 14.1327C8.55857 14.1327 8.99634 13.695 8.99634 13.155V9.24511H12.9077C13.4477 9.24511 13.8854 8.80734 13.8854 8.26733C13.8854 7.72732 13.4477 7.28955 12.9077 7.28955H8.99634V3.37719Z" fill="#555555"></path>
</symbol><symbol viewBox="0 0 16 16" id="font-icon-ic_arrowLineDown-1">
<path fill-rule="evenodd" clip-rule="evenodd" d="M3.39025 5.25339C3.86507 4.88096 4.5868 4.92409 5.00227 5.34972L8.00011 8.42086L10.9979 5.34972C11.4134 4.92409 12.1351 4.88096 12.61 5.25339C13.0848 5.62581 13.1329 6.27276 12.7174 6.69839L8.85985 10.6503C8.64292 10.8725 8.32953 11 8.00011 11C7.67068 11 7.35729 10.8725 7.14036 10.6503L3.28278 6.69839C2.86731 6.27276 2.91542 5.62581 3.39025 5.25339Z" fill="#555555"></path>
</symbol><symbol viewBox="0 0 16 16" id="font-icon-ic_arrowLineDown">
<path fill-rule="evenodd" clip-rule="evenodd" d="M3.39024 5.25339C3.86507 4.88096 4.58679 4.92409 5.00226 5.34972L8.0001 8.42086L10.9979 5.34972C11.4134 4.92409 12.1351 4.88096 12.61 5.25339C13.0848 5.62581 13.1329 6.27276 12.7174 6.69839L8.85985 10.6503C8.64292 10.8725 8.32953 11 8.0001 11C7.67068 11 7.35729 10.8725 7.14036 10.6503L3.28278 6.69839C2.86731 6.27276 2.91542 5.62581 3.39024 5.25339Z" fill="#555555"></path>
</symbol><symbol viewBox="0 0 16 16" id="font-icon-ic_arrowLineUp-1">
<path fill-rule="evenodd" clip-rule="evenodd" d="M12.6098 10.7466C12.1349 11.119 11.4132 11.0759 10.9977 10.6503L7.9999 7.57914L5.00206 10.6503C4.58659 11.0759 3.86486 11.119 3.39004 10.7466C2.91521 10.3742 2.8671 9.72724 3.28257 9.30161L7.14015 5.34971C7.35708 5.12747 7.67047 5 7.9999 5C8.32932 5 8.64271 5.12747 8.85964 5.34971L12.7172 9.30161C13.1327 9.72724 13.0846 10.3742 12.6098 10.7466Z" fill="#555555"></path>
</symbol><symbol viewBox="0 0 16 16" id="font-icon-ic_arrowLineUp">
<path fill-rule="evenodd" clip-rule="evenodd" d="M12.6098 10.7466C12.1349 11.119 11.4132 11.0759 10.9977 10.6503L7.9999 7.57914L5.00206 10.6503C4.58659 11.0759 3.86486 11.119 3.39004 10.7466C2.91521 10.3742 2.8671 9.72724 3.28257 9.30161L7.14015 5.34971C7.35708 5.12747 7.67047 5 7.9999 5C8.32932 5 8.64271 5.12747 8.85964 5.34971L12.7172 9.30161C13.1327 9.72724 13.0846 10.3742 12.6098 10.7466Z" fill="#555555"></path>
</symbol><symbol viewBox="0 0 16 16" id="font-icon-ic_arrowdown">
<path d="M13 6L8 10L3 6" stroke="#777777" stroke-linecap="round"></path>
</symbol><symbol viewBox="0 0 16 16" id="font-icon-ic_arrowdownDesk">
<path d="M11 7L8 10L5 7" stroke="#555555" stroke-linecap="round"></path>
</symbol><symbol viewBox="0 0 24 24" id="font-icon-ic_arrowdownM">
<path d="M11.5102 15.3142L7.6799 9.95185C7.39531 9.55343 7.68011 9 8.16974 9L15.8303 9C16.3199 9 16.6047 9.55343 16.3201 9.95185L12.4898 15.3142C12.2498 15.6503 11.7502 15.6503 11.5102 15.3142Z" fill="black"></path>
</symbol><symbol viewBox="0 0 16 16" id="font-icon-ic_arrowupDesk">
<path d="M5 9L8 6L11 9" stroke="#555555" stroke-linecap="round"></path>
</symbol><symbol viewBox="0 0 18 18" id="font-icon-ic_calendar">
<path d="M5.25 8.25H6.75V9.75H5.25V8.25ZM5.25 11.25H6.75V12.75H5.25V11.25ZM8.25 8.25H9.75V9.75H8.25V8.25ZM8.25 11.25H9.75V12.75H8.25V11.25ZM11.25 8.25H12.75V9.75H11.25V8.25ZM11.25 11.25H12.75V12.75H11.25V11.25Z" fill="black"></path>
<path d="M3.75 16.5H14.25C15.0773 16.5 15.75 15.8272 15.75 15V4.5C15.75 3.67275 15.0773 3 14.25 3H12.75V1.5H11.25V3H6.75V1.5H5.25V3H3.75C2.92275 3 2.25 3.67275 2.25 4.5V15C2.25 15.8272 2.92275 16.5 3.75 16.5ZM14.25 6L14.2507 15H3.75V6H14.25Z" fill="black"></path>
</symbol><symbol viewBox="0 0 16 16" id="font-icon-ic_cancel">
<path fill-rule="evenodd" clip-rule="evenodd" d="M2.95716 2.95698C3.21751 2.69663 3.63962 2.69663 3.89997 2.95698L7.93545 6.99246L11.9709 2.95698C12.2312 2.69663 12.6534 2.69663 12.9137 2.95698C13.1741 3.21733 13.1741 3.63944 12.9137 3.89979L8.87826 7.93527L12.9137 11.9707C13.1741 12.2311 13.1741 12.6532 12.9137 12.9135C12.6534 13.1739 12.2312 13.1739 11.9709 12.9135L7.93545 8.87808L3.89997 12.9135C3.63962 13.1739 3.21751 13.1739 2.95716 12.9135C2.69681 12.6532 2.69682 12.2311 2.95717 11.9707L6.99264 7.93527L2.95716 3.89979C2.69681 3.63944 2.69681 3.21733 2.95716 2.95698Z" fill="#383538"></path>
</symbol><symbol viewBox="0 0 32 32" id="font-icon-ic_check">
<path d="M13.3333 20.7815L8.94267 16.3908L7.05733 18.2761L13.3333 24.5521L26.276 11.6095L24.3907 9.72412L13.3333 20.7815Z" fill="#0096FF"></path>
</symbol><symbol viewBox="0 0 18 19" id="font-icon-ic_columns">
<path d="M6.75 7.96484C5.925 7.96484 5.25 8.63984 5.25 9.46484C5.25 10.2898 5.925 10.9648 6.75 10.9648C7.575 10.9648 8.25 10.2898 8.25 9.46484C8.25 8.63984 7.575 7.96484 6.75 7.96484ZM6.75 3.46484C5.925 3.46484 5.25 4.13984 5.25 4.96484C5.25 5.78984 5.925 6.46484 6.75 6.46484C7.575 6.46484 8.25 5.78984 8.25 4.96484C8.25 4.13984 7.575 3.46484 6.75 3.46484ZM6.75 12.4648C5.925 12.4648 5.25 13.1398 5.25 13.9648C5.25 14.7898 5.925 15.4648 6.75 15.4648C7.575 15.4648 8.25 14.7898 8.25 13.9648C8.25 13.1398 7.575 12.4648 6.75 12.4648Z" fill="#A5A5A5"></path>
<path d="M11.25 7.96484C10.425 7.96484 9.75 8.63984 9.75 9.46484C9.75 10.2898 10.425 10.9648 11.25 10.9648C12.075 10.9648 12.75 10.2898 12.75 9.46484C12.75 8.63984 12.075 7.96484 11.25 7.96484ZM11.25 3.46484C10.425 3.46484 9.75 4.13984 9.75 4.96484C9.75 5.78984 10.425 6.46484 11.25 6.46484C12.075 6.46484 12.75 5.78984 12.75 4.96484C12.75 4.13984 12.075 3.46484 11.25 3.46484ZM11.25 12.4648C10.425 12.4648 9.75 13.1398 9.75 13.9648C9.75 14.7898 10.425 15.4648 11.25 15.4648C12.075 15.4648 12.75 14.7898 12.75 13.9648C12.75 13.1398 12.075 12.4648 11.25 12.4648Z" fill="#A5A5A5"></path>
</symbol><symbol viewBox="0 0 18 18" id="font-icon-ic_createNew">
<path fill-rule="evenodd" clip-rule="evenodd" d="M11 1.5L11.313 1.50011C11.2719 1.65988 11.25 1.82739 11.25 2V2.24999H11C9.89543 2.24999 9 3.14543 9 4.24999C9 5.35456 9.89543 6.24999 11 6.24999H11.25V6.5C11.25 7.60456 12.1454 8.5 13.25 8.5C14.003 8.5 14.6588 8.08385 15 7.469V12.5C15 14.3856 15 15.3284 14.4142 15.9142C13.8284 16.5 12.8856 16.5 11 16.5H7C5.11438 16.5 4.17157 16.5 3.58579 15.9142C3 15.3284 3 14.3856 3 12.5V5.5C3 3.61438 3 2.67157 3.58579 2.08579C4.17157 1.5 5.11438 1.5 7 1.5H11ZM6 8.5C5.72386 8.5 5.5 8.72386 5.5 9C5.5 9.27614 5.72386 9.5 6 9.5H9C9.27614 9.5 9.5 9.27614 9.5 9C9.5 8.72386 9.27614 8.5 9 8.5H6ZM6 10.75C5.72386 10.75 5.5 10.9739 5.5 11.25C5.5 11.5261 5.72386 11.75 6 11.75H10.5C10.7761 11.75 11 11.5261 11 11.25C11 10.9739 10.7761 10.75 10.5 10.75H6ZM6 13C5.72386 13 5.5 13.2239 5.5 13.5C5.5 13.7761 5.72386 14 6 14H9C9.27614 14 9.5 13.7761 9.5 13.5C9.5 13.2239 9.27614 13 9 13H6Z" fill="#0096FF"></path>
<path fill-rule="evenodd" clip-rule="evenodd" d="M13.5 1.5C13.9142 1.5 14.25 1.83579 14.25 2.25L14.25 6.75C14.25 7.16421 13.9142 7.5 13.5 7.5C13.0858 7.5 12.75 7.16421 12.75 6.75L12.75 2.25C12.75 1.83579 13.0858 1.5 13.5 1.5Z" fill="#0096FF"></path>
<path fill-rule="evenodd" clip-rule="evenodd" d="M16.5 4.5C16.5 4.91421 16.1642 5.25 15.75 5.25L11.25 5.25C10.8358 5.25 10.5 4.91421 10.5 4.5C10.5 4.08579 10.8358 3.75 11.25 3.75L15.75 3.75C16.1642 3.75 16.5 4.08579 16.5 4.5Z" fill="#0096FF"></path>
</symbol><symbol viewBox="0 0 18 18" id="font-icon-ic_customers">
<circle cx="9.00031" cy="7.26008" r="1.84113" fill="#555555"></circle>
<path fill-rule="evenodd" clip-rule="evenodd" d="M12.9735 11.9716C13.0154 12.0476 12.9941 12.1422 12.925 12.1947C11.8306 13.0249 10.4727 13.5196 9.0018 13.5196C7.53153 13.5196 6.17419 13.0253 5.08012 12.1958C5.01096 12.1434 4.98961 12.0488 5.03148 11.9728C5.72589 10.7119 7.24301 9.8374 9.00282 9.8374C10.7621 9.8374 12.2788 10.7114 12.9735 11.9716Z" fill="#555555"></path>
<rect x="2.55918" y="2.28867" width="12.8879" height="13.6244" rx="1.65702" stroke="#555555" stroke-width="1.10468"></rect>
<rect x="6.28913" y="1.36823" width="5.46526" height="2.51945" rx="1.25972" fill="white" stroke="#555555" stroke-width="0.736454"></rect>
</symbol><symbol viewBox="0 0 16 16" id="font-icon-ic_discord">
<path d="M12.8697 3.84457C14.4508 6.02384 15.2316 8.48199 14.9397 11.3119C14.9385 11.3239 14.9318 11.3349 14.9213 11.3421C13.724 12.1663 12.5639 12.6665 11.4201 12.9982C11.4112 13.0007 11.4017 13.0006 11.3929 12.9978C11.3841 12.995 11.3764 12.9897 11.371 12.9826C11.1067 12.6379 10.8666 12.2745 10.6563 11.893C10.6442 11.8705 10.6552 11.8434 10.6801 11.8346C11.0614 11.6999 11.424 11.5384 11.7728 11.3473C11.8002 11.3322 11.802 11.2953 11.7766 11.2776C11.7026 11.2261 11.6293 11.1719 11.5591 11.1178C11.546 11.1078 11.5283 11.1058 11.5134 11.1126C9.24908 12.0928 6.76864 12.0928 4.47754 11.1126C4.46267 11.1063 4.44499 11.1085 4.43222 11.1183C4.36222 11.1724 4.28872 11.2261 4.21539 11.2776C4.19002 11.2953 4.19212 11.3322 4.21977 11.3473C4.56854 11.5348 4.93114 11.6999 5.31194 11.8352C5.33662 11.8441 5.34834 11.8705 5.33609 11.893C5.13029 12.275 4.89019 12.6384 4.62104 12.9831C4.60932 12.997 4.59007 13.0034 4.57187 12.9982C3.43349 12.6665 2.27342 12.1663 1.07607 11.3421C1.0661 11.3349 1.05892 11.3234 1.05787 11.3114C0.813923 8.86358 1.3111 6.38508 3.12602 3.84408C3.13039 3.83736 3.13704 3.83211 3.14474 3.82899C4.03777 3.44478 4.99449 3.16212 5.99444 3.00069C6.01264 2.99807 6.03084 3.00594 6.04029 3.02103C6.16384 3.2261 6.30506 3.48907 6.40061 3.70398C7.45464 3.55305 8.52511 3.55305 9.60118 3.70398C9.69673 3.49367 9.83306 3.2261 9.95608 3.02103C9.96046 3.01355 9.96726 3.00755 9.97549 3.00389C9.98372 3.00024 9.99298 2.99912 10.0019 3.00069C11.0024 3.16261 11.9591 3.44527 12.8515 3.82899C12.8593 3.83211 12.8658 3.83736 12.8697 3.84457ZM6.93646 8.49872C6.94749 7.77509 6.38469 7.1763 5.67822 7.1763C4.97752 7.1763 4.42014 7.76984 4.42014 8.49872C4.42014 9.22744 4.98854 9.82098 5.67822 9.82098C6.37909 9.82098 6.93646 9.22744 6.93646 8.49872ZM11.5883 8.49872C11.5993 7.77509 11.0365 7.1763 10.3302 7.1763C9.62936 7.1763 9.07198 7.76984 9.07198 8.49872C9.07198 9.22744 9.64038 9.82098 10.3302 9.82098C11.0365 9.82098 11.5883 9.22744 11.5883 8.49872Z" fill="white"></path>
</symbol><symbol viewBox="0 0 24 24" id="font-icon-ic_dots">
<path d="M12 10C10.9 10 10 10.9 10 12C10 13.1 10.9 14 12 14C13.1 14 14 13.1 14 12C14 10.9 13.1 10 12 10ZM18 10C16.9 10 16 10.9 16 12C16 13.1 16.9 14 18 14C19.1 14 20 13.1 20 12C20 10.9 19.1 10 18 10ZM6 10C4.9 10 4 10.9 4 12C4 13.1 4.9 14 6 14C7.1 14 8 13.1 8 12C8 10.9 7.1 10 6 10Z" fill="black"></path>
</symbol><symbol viewBox="0 0 16 16" id="font-icon-ic_edit-1">
<path d="M14.3192 1.68079C15.2269 2.5885 15.2269 4.06019 14.3192 4.96791L5.73487 13.5523C5.36251 13.9246 4.89596 14.1888 4.38509 14.3165L1.72255 14.9821C1.29697 15.0885 0.911485 14.703 1.01788 14.2774L1.68351 11.6149C1.81123 11.104 2.07539 10.6375 2.44775 10.2651L11.0321 1.68079C11.9398 0.773072 13.4115 0.773072 14.3192 1.68079ZM10.2102 4.146L3.26953 11.0869C3.04611 11.3103 2.88762 11.5903 2.81099 11.8968L2.38024 13.6198L4.10322 13.189C4.40974 13.1124 4.68967 12.9539 4.91309 12.7305L11.8535 5.78932L10.2102 4.146ZM11.8539 2.50257L11.0319 3.32435L12.6752 4.96766L13.4974 4.14613C13.9513 3.69227 13.9513 2.95642 13.4974 2.50257C13.0436 2.04871 12.3077 2.04871 11.8539 2.50257Z" fill="#777777"></path>
</symbol><symbol viewBox="0 0 16 16" id="font-icon-ic_edit">
<path d="M12.667 5.08252H7.41699" stroke="#555555" stroke-width="1.27253" stroke-linecap="round" stroke-linejoin="round"></path>
<path d="M9.16699 10.9165H3.91699" stroke="#555555" stroke-width="1.27253" stroke-linecap="round" stroke-linejoin="round"></path>
<path d="M10.917 12.6655C11.8835 12.6655 12.667 11.882 12.667 10.9155C12.667 9.94903 11.8835 9.16553 10.917 9.16553C9.95049 9.16553 9.16699 9.94903 9.16699 10.9155C9.16699 11.882 9.95049 12.6655 10.917 12.6655Z" stroke="#555555" stroke-width="1.27253" stroke-linecap="round" stroke-linejoin="round"></path>
<path d="M5.08301 6.83301C6.04951 6.83301 6.83301 6.04951 6.83301 5.08301C6.83301 4.11651 6.04951 3.33301 5.08301 3.33301C4.11651 3.33301 3.33301 4.11651 3.33301 5.08301C3.33301 6.04951 4.11651 6.83301 5.08301 6.83301Z" stroke="#555555" stroke-width="1.27253" stroke-linecap="round" stroke-linejoin="round"></path>
</symbol><symbol viewBox="0 0 18 18" id="font-icon-ic_ethereum">
<g clip-path="url(#clip0_6403_407135)">
<path d="M9 17C13.4183 17 17 13.4183 17 9C17 4.58172 13.4183 1 9 1C4.58172 1 1 4.58172 1 9C1 13.4183 4.58172 17 9 17Z" fill="#627EEA"></path>
<path d="M9.25 3V7.435L12.9985 9.11L9.25 3Z" fill="white" fill-opacity="0.602"></path>
<path d="M9.249 3L5.5 9.11L9.249 7.435V3Z" fill="white"></path>
<path d="M9.25 11.9841V14.9976L13.001 9.80811L9.25 11.9841Z" fill="white" fill-opacity="0.602"></path>
<path d="M9.249 14.9976V11.9836L5.5 9.80811L9.249 14.9976Z" fill="white"></path>
<path d="M9.25 11.2865L12.9985 9.11003L9.25 7.43604V11.2865Z" fill="white" fill-opacity="0.2"></path>
<path d="M5.5 9.11003L9.249 11.2865V7.43604L5.5 9.11003Z" fill="white" fill-opacity="0.602"></path>
</g>
<defs>
<clippath id="clip0_6403_407135">
<rect width="16" height="16" fill="white" transform="translate(1 1)"></rect>
</clippath>
</defs>
</symbol><symbol viewBox="0 0 18 18" id="font-icon-ic_ethereumGray">
<g clip-path="url(#clip0_8641_348746)">
<path d="M9 17C13.4183 17 17 13.4183 17 9C17 4.58172 13.4183 1 9 1C4.58172 1 1 4.58172 1 9C1 13.4183 4.58172 17 9 17Z" fill="#F2F4F7"></path>
<path d="M9.25 3V7.435L12.9985 9.11L9.25 3Z" fill="#2F3030"></path>
<path d="M9.249 3L5.5 9.11L9.249 7.435V3Z" fill="#828384"></path>
<path d="M9.25 11.9841V14.9976L13.001 9.80811L9.25 11.9841Z" fill="#2F3030"></path>
<path d="M9.249 14.9976V11.9836L5.5 9.80811L9.249 14.9976Z" fill="#828384"></path>
<path d="M9.25 11.2865L12.9985 9.11003L9.25 7.43604V11.2865Z" fill="#131313"></path>
<path d="M5.5 9.11003L9.249 11.2865V7.43604L5.5 9.11003Z" fill="#343535"></path>
</g>
<defs>
<clippath id="clip0_8641_348746">
<rect width="16" height="16" fill="white" transform="translate(1 1)"></rect>
</clippath>
</defs>
</symbol><symbol viewBox="0 0 16 16" id="font-icon-ic_folder">
<path d="M1.44334 13.034C1.56734 13.2207 1.776 13.3333 2 13.3333H12C12.2667 13.3333 12.508 13.1747 12.6127 12.9293L14.6127 8.26267C14.6565 8.16129 14.6744 8.0506 14.6647 7.94058C14.6551 7.83056 14.6182 7.72467 14.5574 7.63246C14.4967 7.54025 14.4139 7.46462 14.3165 7.4124C14.2192 7.36018 14.1104 7.33301 14 7.33333H13.3333V4.66667C13.3333 3.93133 12.7353 3.33333 12 3.33333H7.93334L6.41067 2.142C6.29356 2.04999 6.14893 1.99999 6 2H2.66667C1.93134 2 1.33334 2.598 1.33334 3.33333V12.6667H1.338C1.33652 12.7968 1.37313 12.9245 1.44334 13.034ZM11.5607 12H3.01134L4.44 8.66667H12.9893L11.5607 12ZM12 4.66667V7.33333H4C3.73334 7.33333 3.492 7.492 3.38734 7.73733L2.66667 9.41933V4.66667H12Z" fill="black"></path>
</symbol><symbol viewBox="0 0 16 16" id="font-icon-ic_folderPlus">
<path d="M8.66667 6H7.33333V8H5.33333V9.33333H7.33333V11.3333H8.66667V9.33333H10.6667V8H8.66667V6Z" fill="black"></path>
<path d="M13.3333 3.33333H7.60934L6.47134 2.19533C6.40953 2.13331 6.33607 2.08411 6.25518 2.05059C6.17429 2.01707 6.08756 1.99987 6 2H2.66667C1.93134 2 1.33334 2.598 1.33334 3.33333V12.6667C1.33334 13.402 1.93134 14 2.66667 14H13.3333C14.0687 14 14.6667 13.402 14.6667 12.6667V4.66667C14.6667 3.93133 14.0687 3.33333 13.3333 3.33333ZM2.66667 12.6667V4.66667H13.3333L13.3347 12.6667H2.66667Z" fill="black"></path>
</symbol><symbol viewBox="0 0 16 16" id="font-icon-ic_gift">
<path d="M12.8451 7.8584L12.8451 13.7165L3.24512 13.7165L3.24512 7.8584" fill="#0096FF"></path>
<path d="M12.8451 7.8584L12.8451 13.7165L3.24512 13.7165L3.24512 7.8584" stroke="#0096FF" stroke-width="1.03931" stroke-linecap="round" stroke-linejoin="round"></path>
<path d="M14 4.93018L2 4.93018L2 7.85923L14 7.85923L14 4.93018Z" fill="#0096FF" stroke="#0096FF" stroke-width="1.03931" stroke-linecap="round" stroke-linejoin="round"></path>
<path d="M8.04473 4.92954L5.34473 4.92954C4.9469 4.92954 4.56537 4.77524 4.28407 4.50059C4.00276 4.22594 3.84473 3.85343 3.84473 3.46501C3.84473 3.0766 4.00276 2.70409 4.28407 2.42944C4.56537 2.15479 4.9469 2.00049 5.34473 2.00049C7.44473 2.00049 8.04473 4.92954 8.04473 4.92954Z" stroke="#141314" stroke-width="1.20433" stroke-linecap="round" stroke-linejoin="round"></path>
<path d="M8.04492 4.92905L10.7449 4.92905C11.1427 4.92905 11.5243 4.77475 11.8056 4.5001C12.0869 4.22545 12.2449 3.85294 12.2449 3.46453C12.2449 3.07611 12.0869 2.7036 11.8056 2.42895C11.5243 2.1543 11.1427 2 10.7449 2C8.64492 2 8.04492 4.92905 8.04492 4.92905Z" stroke="#141314" stroke-width="1.20433" stroke-linecap="round" stroke-linejoin="round"></path>
<path d="M8.06543 5.3291L8.06543 14.0003" stroke="#141314" stroke-width="1.20433"></path>
</symbol><symbol viewBox="0 0 16 16" id="font-icon-ic_image">
<path d="M11.8889 3H4.11111C3.49746 3 3 3.49746 3 4.11111V11.8889C3 12.5025 3.49746 13 4.11111 13H11.8889C12.5025 13 13 12.5025 13 11.8889V4.11111C13 3.49746 12.5025 3 11.8889 3Z" stroke="#A5A5A5" stroke-width="1.20915" stroke-linecap="round" stroke-linejoin="round"></path>
<path d="M6.33377 7.44586C6.94742 7.44586 7.44488 6.94839 7.44488 6.33474C7.44488 5.72109 6.94742 5.22363 6.33377 5.22363C5.72012 5.22363 5.22266 5.72109 5.22266 6.33474C5.22266 6.94839 5.72012 7.44586 6.33377 7.44586Z" stroke="#A5A5A5" stroke-width="1.20915" stroke-linecap="round" stroke-linejoin="round"></path>
<path d="M12.9993 9.66672L11.2849 7.95227C11.0765 7.74397 10.794 7.62695 10.4993 7.62695C10.2047 7.62695 9.92216 7.74397 9.71379 7.95227L4.66602 13" stroke="#A5A5A5" stroke-width="1.20915" stroke-linecap="round" stroke-linejoin="round"></path>
</symbol><symbol viewBox="0 0 16 16" id="font-icon-ic_invite">
<circle cx="6.62823" cy="5.89239" r="2.89239" fill="#555555"></circle>
<path fill-rule="evenodd" clip-rule="evenodd" d="M11.8335 6.18115C12.3128 6.18115 12.7013 6.56964 12.7013 7.04887L12.7013 10.5197C12.7013 10.999 12.3128 11.3874 11.8335 11.3874C11.3543 11.3874 10.9658 10.999 10.9658 10.5197L10.9658 7.04887C10.9658 6.56964 11.3543 6.18115 11.8335 6.18115Z" fill="#555555"></path>
<path fill-rule="evenodd" clip-rule="evenodd" d="M14.4365 8.78568C14.4365 9.26491 14.048 9.6534 13.5688 9.6534L10.0979 9.6534C9.61872 9.6534 9.23023 9.26491 9.23023 8.78568C9.23023 8.30646 9.61872 7.91797 10.0979 7.91797L13.5688 7.91797C14.048 7.91797 14.4365 8.30646 14.4365 8.78568Z" fill="#555555"></path>
<path d="M10.7594 13.0536C11.0264 12.9931 11.1866 12.7155 11.0682 12.4686C10.749 11.8028 10.2244 11.2177 9.54444 10.7767C8.7077 10.2341 7.6825 9.93994 6.62782 9.93994C5.57314 9.93994 4.54793 10.2341 3.7112 10.7767C3.03123 11.2177 2.50661 11.8028 2.1874 12.4686C2.06904 12.7155 2.22921 12.9931 2.49625 13.0536C5.21619 13.6696 8.03944 13.6696 10.7594 13.0536Z" fill="#555555"></path>
</symbol><symbol viewBox="0 0 16 16" id="font-icon-ic_invited">
<circle cx="6.66667" cy="4.54167" r="3.54167" fill="#555555"></circle>
<path d="M13.0415 5.95898L13.0415 10.209" stroke="#555555" stroke-width="1.16667" stroke-linecap="round"></path>
<path d="M15.1665 8.08398L10.9165 8.08398" stroke="#555555" stroke-width="1.16667" stroke-linecap="round"></path>
<path d="M11.7257 13.3126C12.0527 13.2386 12.2488 12.8986 12.1039 12.5963C11.713 11.781 11.0706 11.0646 10.238 10.5246C9.21344 9.86016 7.9581 9.5 6.66667 9.5C5.37524 9.5 4.11989 9.86016 3.09533 10.5246C2.26272 11.0646 1.62033 11.781 1.22947 12.5963C1.08454 12.8986 1.28067 13.2386 1.60765 13.3126C4.93816 14.0669 8.39517 14.0669 11.7257 13.3126Z" fill="#555555"></path>
</symbol><symbol viewBox="0 0 16 16" id="font-icon-ic_lock">
<g clip-path="url(#clip0_7638_378088)">
<path d="M10.501 7.3333L10.501 4.66665C10.501 3.95941 10.2376 3.28114 9.76874 2.78104C9.2999 2.28095 8.66402 2 8.00098 2C7.33794 2 6.70205 2.28095 6.23321 2.78104C5.76437 3.28114 5.50098 3.95941 5.50098 4.66665L5.50098 7.3333" stroke="#141314" stroke-width="2.21979" stroke-linecap="round" stroke-linejoin="round"></path>
<path d="M11.7498 7.3335L4.24977 7.3335C3.55942 7.3335 2.99977 7.93045 2.99977 8.66682L2.99977 12.6668C2.99977 13.4032 3.55942 14.0001 4.24977 14.0001L11.7498 14.0001C12.4401 14.0001 12.9998 13.4032 12.9998 12.6668L12.9998 8.66682C12.9998 7.93045 12.4401 7.3335 11.7498 7.3335Z" fill="#0096FF" stroke="#0096FF" stroke-width="2.21979" stroke-linecap="round" stroke-linejoin="round"></path>
</g>
<defs>
<clippath id="clip0_7638_378088">
<rect width="16" height="16" fill="white" transform="translate(16 16) rotate(-180)"></rect>
</clippath>
</defs>
</symbol><symbol viewBox="0 0 16 16" id="font-icon-ic_login-1">
<path d="M2.33423 5.93365C2.49248 6.01225 2.67547 6.0248 2.84298 5.96854C3.01049 5.91229 3.14881 5.79184 3.22756 5.63365C3.64952 4.78152 4.29162 4.05768 5.08737 3.53713C5.88312 3.01658 6.80357 2.71825 7.75338 2.67302C8.70319 2.6278 9.64782 2.83734 10.4894 3.27993C11.331 3.72252 12.039 4.38207 12.54 5.19026C13.041 5.99846 13.3169 6.9259 13.3389 7.87653C13.361 8.82716 13.1285 9.76641 12.6655 10.597C12.2026 11.4276 11.526 12.1193 10.7058 12.6004C9.88567 13.0816 8.95178 13.3347 8.00089 13.3337C7.00681 13.338 6.03166 13.0619 5.18735 12.5372C4.34304 12.0124 3.66379 11.2602 3.22756 10.367C3.14799 10.2079 3.00847 10.0869 2.83969 10.0306C2.67091 9.97433 2.48669 9.98742 2.32756 10.067C2.16843 10.1466 2.04742 10.2861 1.99116 10.4549C1.9349 10.6236 1.94799 10.8079 2.02756 10.967C2.69649 12.3132 3.80073 13.3937 5.16108 14.0334C6.52142 14.673 8.058 14.8341 9.52142 14.4905C10.9848 14.147 12.2892 13.3189 13.2228 12.1408C14.1564 10.9626 14.6644 9.50353 14.6644 8.00032C14.6644 6.49711 14.1564 5.03802 13.2228 3.85987C12.2892 2.68171 10.9848 1.85366 9.52142 1.5101C8.058 1.16655 6.52142 1.32765 5.16108 1.96727C3.80074 2.60689 2.69649 3.68748 2.02756 5.03365C1.98783 5.11274 1.96425 5.19894 1.95818 5.28724C1.95212 5.37554 1.9637 5.46416 1.99224 5.54793C2.02079 5.63171 2.06573 5.70896 2.12444 5.77518C2.18316 5.84141 2.25447 5.89528 2.33423 5.93365ZM2.00089 8.66699L8.39423 8.66699L6.86089 10.1937C6.79873 10.2558 6.74942 10.3296 6.71578 10.4108C6.68214 10.492 6.66483 10.5791 6.66483 10.667C6.66483 10.7549 6.68214 10.8419 6.71578 10.9232C6.74942 11.0044 6.79873 11.0782 6.86089 11.1403C6.92305 11.2025 6.99684 11.2518 7.07806 11.2854C7.15927 11.3191 7.24632 11.3364 7.33422 11.3364C7.42213 11.3364 7.50918 11.3191 7.59039 11.2854C7.67161 11.2518 7.7454 11.2025 7.80756 11.1403L10.4742 8.47365C10.5349 8.41025 10.5825 8.33549 10.6142 8.25365C10.6809 8.09135 10.6809 7.90929 10.6142 7.74699C10.5825 7.66515 10.5349 7.59039 10.4742 7.52699L7.80756 4.86032C7.74558 4.79783 7.67185 4.74824 7.59061 4.71439C7.50937 4.68055 7.42223 4.66312 7.33423 4.66312C7.24622 4.66312 7.15908 4.68055 7.07784 4.71439C6.9966 4.74824 6.92287 4.79783 6.86089 4.86032C6.79841 4.9223 6.74881 4.99603 6.71496 5.07727C6.68112 5.15851 6.66369 5.24564 6.66369 5.33365C6.66369 5.42166 6.68112 5.5088 6.71496 5.59004C6.74881 5.67128 6.79841 5.74501 6.86089 5.80699L8.39423 7.33365L2.00089 7.33365C1.82408 7.33365 1.65451 7.40389 1.52949 7.52891C1.40446 7.65394 1.33423 7.82351 1.33423 8.00032C1.33423 8.17713 1.40446 8.3467 1.52949 8.47172C1.65451 8.59675 1.82408 8.66699 2.00089 8.66699Z" fill="white"></path>
</symbol><symbol viewBox="0 0 22 22" id="font-icon-ic_login">
<path d="M3.20798 8.15914C3.42559 8.26721 3.6772 8.28446 3.90752 8.20711C4.13785 8.12977 4.32804 7.96414 4.43632 7.74664C5.01651 6.57495 5.8994 5.57968 6.99356 4.86393C8.08771 4.14817 9.35333 3.73796 10.6593 3.67578C11.9653 3.61359 13.2642 3.90171 14.4214 4.51027C15.5786 5.11883 16.5521 6.02571 17.2409 7.13698C17.9298 8.24824 18.3091 9.52348 18.3394 10.8306C18.3698 12.1377 18.0501 13.4292 17.4135 14.5712C16.777 15.7133 15.8466 16.6643 14.7189 17.3259C13.5912 17.9876 12.3071 18.3356 10.9996 18.3341C9.63279 18.3401 8.29196 17.9605 7.13103 17.2389C5.97011 16.5174 5.03614 15.4832 4.43632 14.255C4.32691 14.0362 4.13507 13.8698 3.903 13.7924C3.67092 13.7151 3.41762 13.7331 3.19881 13.8425C2.98001 13.9519 2.81363 14.1437 2.73627 14.3758C2.65891 14.6079 2.67691 14.8612 2.78632 15.08C3.70609 16.931 5.22443 18.4168 7.0949 19.2962C8.96537 20.1757 11.0782 20.3972 13.0904 19.9249C15.1026 19.4525 16.8961 18.3139 18.1798 16.6939C19.4635 15.074 20.162 13.0677 20.162 11.0008C20.162 8.93389 19.4635 6.92764 18.1798 5.30768C16.8961 3.68772 15.1026 2.54915 13.0904 2.07676C11.0782 1.60437 8.96537 1.82589 7.0949 2.70537C5.22443 3.58484 3.70609 5.07065 2.78632 6.92164C2.73169 7.03038 2.69926 7.14892 2.69092 7.27032C2.68259 7.39173 2.69851 7.51358 2.73776 7.62877C2.77701 7.74396 2.8388 7.85019 2.91953 7.94124C3.00027 8.0323 3.09832 8.10637 3.20798 8.15914ZM2.74965 11.9175L11.5405 11.9175L9.43215 14.0166C9.34668 14.1021 9.27888 14.2036 9.23263 14.3152C9.18637 14.4269 9.16256 14.5466 9.16256 14.6675C9.16256 14.7883 9.18637 14.908 9.23263 15.0197C9.27888 15.1314 9.34668 15.2328 9.43215 15.3183C9.51762 15.4038 9.61908 15.4716 9.73075 15.5178C9.84242 15.5641 9.96211 15.5879 10.083 15.5879C10.2039 15.5879 10.3235 15.5641 10.4352 15.5178C10.5469 15.4716 10.6483 15.4038 10.7338 15.3183L14.4005 11.6516C14.4839 11.5645 14.5494 11.4617 14.593 11.3491C14.6847 11.126 14.6847 10.8756 14.593 10.6525C14.5494 10.54 14.4839 10.4372 14.4005 10.35L10.7338 6.68331C10.6486 6.59739 10.5472 6.52919 10.4355 6.48266C10.3238 6.43612 10.204 6.41216 10.083 6.41216C9.96197 6.41216 9.84216 6.43612 9.73045 6.48266C9.61875 6.52919 9.51736 6.59739 9.43215 6.68331C9.34623 6.76852 9.27804 6.86991 9.2315 6.98161C9.18496 7.09332 9.161 7.21313 9.161 7.33414C9.161 7.45515 9.18496 7.57496 9.2315 7.68667C9.27804 7.79837 9.34623 7.89976 9.43215 7.98497L11.5405 10.0841L2.74965 10.0841C2.50653 10.0841 2.27338 10.1807 2.10147 10.3526C1.92956 10.5245 1.83298 10.7577 1.83298 11.0008C1.83298 11.2439 1.92956 11.4771 2.10147 11.649C2.27338 11.8209 2.50653 11.9175 2.74965 11.9175Z" fill="#383538"></path>
</symbol><symbol viewBox="0 0 18 18" id="font-icon-ic_notification">
<rect x="2.55918" y="2.28867" width="12.8879" height="13.6244" rx="1.65702" stroke="#555555" stroke-width="1.10468"></rect>
<path d="M12.4129 10.7812C11.9026 10.1769 11.5423 9.92281 11.5423 8.25625C11.5423 6.72937 10.7367 6.18656 10.0735 5.92281C10.0278 5.90373 9.98656 5.8753 9.95244 5.83935C9.91832 5.80341 9.89209 5.76073 9.87542 5.71406C9.75948 5.33125 9.43417 5 9.00042 5C8.56667 5 8.24073 5.33125 8.12542 5.71438C8.10885 5.76105 8.08269 5.80374 8.04862 5.8397C8.01455 5.87565 7.97333 5.90407 7.9276 5.92312C7.26385 6.1875 6.45885 6.72938 6.45885 8.25656C6.45885 9.92313 6.09823 10.1772 5.58792 10.7816C5.37635 11.0316 5.56761 11.5003 5.93761 11.5003H12.0629C12.4307 11.5 12.6235 11.0312 12.4129 10.7812ZM7.88292 12C7.86534 11.9999 7.84793 12.0035 7.83184 12.0106C7.81575 12.0177 7.80134 12.0281 7.78954 12.0411C7.77775 12.0542 7.76883 12.0695 7.76338 12.0863C7.75793 12.103 7.75607 12.1206 7.75792 12.1381C7.82823 12.7231 8.3476 13 9.00042 13C9.64636 13 10.161 12.7141 10.2398 12.14C10.2419 12.1224 10.2403 12.1045 10.235 12.0875C10.2296 12.0706 10.2208 12.055 10.2089 12.0417C10.1971 12.0285 10.1826 12.0179 10.1664 12.0107C10.1501 12.0035 10.1325 11.9999 10.1148 12H7.88292Z" fill="#555555"></path>
<circle cx="14" cy="3.5" r="2" fill="#555555" stroke="white" stroke-width="0.8"></circle>
</symbol><symbol viewBox="0 0 18 18" id="font-icon-ic_premium">
<rect x="2.55918" y="2.28867" width="12.8879" height="13.6244" rx="1.65702" stroke="#7B61FF" stroke-width="1.10468"></rect>
<path d="M9 5L10.105 7.47905L12.8042 7.76393L10.788 9.58095L11.3511 12.2361L9 10.88L6.64886 12.2361L7.21201 9.58095L5.19577 7.76393L7.89496 7.47905L9 5Z" fill="#7B61FF"></path>
</symbol><symbol viewBox="0 0 16 16" id="font-icon-ic_preview-1">
<path d="M2.19141 8.15006C2.19141 8.15006 3.979 3.979 8.15006 3.979C12.3211 3.979 14.1087 8.15006 14.1087 8.15006C14.1087 8.15006 12.3211 12.3211 8.15006 12.3211C3.979 12.3211 2.19141 8.15006 2.19141 8.15006Z" stroke="#555555" stroke-width="1.19173" stroke-linecap="round" stroke-linejoin="round"></path>
<path d="M8.14941 9.93652C9.13668 9.93652 9.93701 9.13619 9.93701 8.14893C9.93701 7.16166 9.13668 6.36133 8.14941 6.36133C7.16215 6.36133 6.36182 7.16166 6.36182 8.14893C6.36182 9.13619 7.16215 9.93652 8.14941 9.93652Z" fill="#555555" stroke="#555555" stroke-width="0.715039" stroke-linecap="round" stroke-linejoin="round"></path>
</symbol><symbol viewBox="0 0 16 16" id="font-icon-ic_preview">
<path d="M2 8C2 8 3.8 4 8 4C12.2 4 14 8 14 8C14 8 12.2 12 8 12C3.8 12 2 8 2 8Z" stroke="white" stroke-width="1.38043" stroke-linecap="round" stroke-linejoin="round"></path>
<path d="M8 10C9.10457 10 10 9.10457 10 8C10 6.89543 9.10457 6 8 6C6.89543 6 6 6.89543 6 8C6 9.10457 6.89543 10 8 10Z" fill="white"></path>
</symbol><symbol viewBox="0 0 16 16" id="font-icon-ic_redo">
<path d="M5.54199 9.4053L2.00033 5.70265L5.54199 2" stroke="#A5A5A5" stroke-width="1.5" stroke-linecap="round" stroke-linejoin="round"></path>
<path d="M1.99967 5.70117H9.43717C10.4704 5.70117 11.4613 6.13028 12.1919 6.8941C12.9226 7.65792 13.333 8.69388 13.333 9.77409V9.77409C13.333 10.309 13.2322 10.8386 13.0365 11.3327C12.8407 11.8269 12.5537 12.2759 12.1919 12.6541C11.4613 13.4179 10.4704 13.847 9.43717 13.847H6.95801" stroke="#A5A5A5" stroke-width="1.5" stroke-linecap="round" stroke-linejoin="round"></path>
</symbol><symbol viewBox="0 0 24 24" id="font-icon-ic_refresh">
<path d="M13.3337 13L10.667 15.6667L13.3337 18.3333" stroke="#555555"></path>
<path d="M7.95887 13.333C7.44523 12.4433 7.23949 11.4091 7.37358 10.3906C7.50767 9.37205 7.97409 8.42625 8.70049 7.69984C9.4269 6.97344 10.3727 6.50702 11.3912 6.37293C12.4097 6.23884 13.444 6.44458 14.3337 6.95822C15.2233 7.47187 15.9186 8.26472 16.3118 9.21382C16.7049 10.1629 16.7739 11.2152 16.508 12.2075C16.2421 13.1998 15.6562 14.0766 14.8412 14.702C14.0262 15.3274 13.0276 15.6663 12.0003 15.6663" stroke="#555555" stroke-linecap="round"></path>
</symbol><symbol viewBox="0 0 16 16" id="font-icon-ic_responses">
<path d="M11.5036 13.4119L6.72939 8.6377H11.5036V13.4119Z" fill="#555555" stroke="#555555" stroke-width="0.901555"></path>
<rect x="2.40082" y="3.13373" width="10.9807" height="7.85577" rx="0.802938" fill="#555555" stroke="white" stroke-width="0.477423"></rect>
</symbol><symbol viewBox="0 0 16 16" id="font-icon-ic_search">
<path d="M10.3326 9.44891H9.86916L9.70492 9.29062C10.4088 8.4699 10.7725 7.3502 10.573 6.16015C10.2974 4.53043 8.9365 3.229 7.29409 3.02968C4.81288 2.72484 2.72468 4.81182 3.0297 7.29158C3.22913 8.93302 4.53133 10.2931 6.162 10.5686C7.35275 10.7679 8.47311 10.4045 9.29431 9.70099L9.45269 9.86513V10.3283L11.9456 12.8197C12.1861 13.0601 12.5791 13.0601 12.8196 12.8197C13.0601 12.5794 13.0601 12.1866 12.8196 11.9462L10.3326 9.44891ZM6.8131 9.44891C5.35253 9.44891 4.17352 8.27058 4.17352 6.81087C4.17352 5.35115 5.35253 4.17283 6.8131 4.17283C8.27367 4.17283 9.45269 5.35115 9.45269 6.81087C9.45269 8.27058 8.27367 9.44891 6.8131 9.44891Z" fill="#A5A5A5"></path>
</symbol><symbol viewBox="0 0 16 16" id="font-icon-ic_share">
<path d="M12.8266 2.69141L7.43604 8.08197" stroke="#555555" stroke-width="1.08756" stroke-linecap="round" stroke-linejoin="round"></path>
<path d="M12.8269 2.69141L9.39655 12.4924L7.43634 8.08197L3.02588 6.12177L12.8269 2.69141Z" stroke="#555555" stroke-width="1.08756" stroke-linecap="round" stroke-linejoin="round"></path>
</symbol><symbol viewBox="0 0 16 16" id="font-icon-ic_signIn">
<path d="M14.4729 13.5308L13.2823 12.3401C13.3123 12.2314 13.3329 12.1188 13.3329 12.0001V7.33343H11.9996V11.0574L4.94227 4.0001H8.66627V2.66676H3.99961C3.88094 2.66676 3.76827 2.68743 3.65961 2.71743L2.47294 1.53076L1.53027 2.47343L13.5303 14.4734L14.4729 13.5308ZM2.66627 5.4141V12.0001C2.66627 12.7354 3.26427 13.3334 3.99961 13.3334H10.5856L9.25227 12.0001H3.99961V6.74743L2.66627 5.4141Z" fill="#555555"></path>
<path d="M12 6C13.1046 6 14 5.10457 14 4C14 2.89543 13.1046 2 12 2C10.8954 2 10 2.89543 10 4C10 5.10457 10.8954 6 12 6Z" fill="#555555"></path>
</symbol><symbol viewBox="0 0 16 16" id="font-icon-ic_signOut">
<path d="M10.6663 8.66683V7.3335H4.66634V5.3335L1.33301 8.00016L4.66634 10.6668V8.66683H10.6663Z" fill="#555555"></path>
<path d="M13.3333 2H7.33333C6.598 2 6 2.598 6 3.33333V6H7.33333V3.33333H13.3333V12.6667H7.33333V10H6V12.6667C6 13.402 6.598 14 7.33333 14H13.3333C14.0687 14 14.6667 13.402 14.6667 12.6667V3.33333C14.6667 2.598 14.0687 2 13.3333 2Z" fill="#555555"></path>
</symbol><symbol viewBox="0 0 16 16" id="font-icon-ic_sort">
<path d="M4.66667 13.3332H6V5.33317H8L5.33333 2.6665L2.66667 5.33317H4.66667V13.3332ZM13.3333 10.6665H11.3333V2.6665H10V10.6665H8L10.6667 13.3332L13.3333 10.6665Z" fill="#555555"></path>
</symbol><symbol viewBox="0 0 18 18" id="font-icon-ic_template">
<path d="M3 6.25C3 4.36438 3 3.42157 3.58579 2.83579C4.17157 2.25 5.11438 2.25 7 2.25H11C12.8856 2.25 13.8284 2.25 14.4142 2.83579C15 3.42157 15 4.36438 15 6.25V11.75C15 13.6356 15 14.5784 14.4142 15.1642C13.8284 15.75 12.8856 15.75 11 15.75H7C5.11438 15.75 4.17157 15.75 3.58579 15.1642C3 14.5784 3 13.6356 3 11.75V6.25Z" fill="#FFC814"></path>
<path fill-rule="evenodd" clip-rule="evenodd" d="M6.17308 10.1538C6.17308 9.7396 6.50887 9.40381 6.92308 9.40381L11.4231 9.40381C11.8373 9.40381 12.1731 9.73959 12.1731 10.1538C12.1731 10.568 11.8373 10.9038 11.4231 10.9038L6.92308 10.9038C6.50887 10.9038 6.17308 10.568 6.17308 10.1538Z" fill="#383538"></path>
<path fill-rule="evenodd" clip-rule="evenodd" d="M6.17308 12.9229C6.17308 12.5086 6.50887 12.1729 6.92308 12.1729L11.4231 12.1729C11.8373 12.1729 12.1731 12.5086 12.1731 12.9229C12.1731 13.3371 11.8373 13.6729 11.4231 13.6729L6.92308 13.6729C6.50887 13.6729 6.17308 13.3371 6.17308 12.9229Z" fill="#383538"></path>
<rect x="5.07692" y="3.69238" width="7.84615" height="4.15385" rx="1" fill="white"></rect>
<path fill-rule="evenodd" clip-rule="evenodd" d="M13.7885 1.55762C14.1708 1.55762 14.4808 1.86757 14.4808 2.24992L14.4808 3.80762H16.0385C16.4208 3.80762 16.7308 4.11757 16.7308 4.49992C16.7308 4.88228 16.4208 5.19223 16.0385 5.19223L14.4808 5.19223L14.4808 6.74993C14.4808 7.13228 14.1708 7.44223 13.7885 7.44223C13.4061 7.44223 13.0962 7.13228 13.0962 6.74993L13.0962 5.19223L11.5385 5.19223C11.1561 5.19223 10.8462 4.88228 10.8462 4.49992C10.8462 4.11757 11.1561 3.80762 11.5385 3.80762H13.0962L13.0962 2.24992C13.0962 1.86757 13.4061 1.55762 13.7885 1.55762Z" fill="#383538"></path>
</symbol><symbol viewBox="0 0 20 22" id="font-icon-ic_ticket">
<rect x="3.55263" y="9.23281" width="12.8947" height="10.6842" rx="1.65789" stroke="#555555" stroke-width="1.10526"></rect>
<g clip-path="url(#clip0_8928_406905)">
<rect x="7.07227" y="5.83545" width="5.86472" height="9.38355" fill="white"></rect>
<path d="M10.8924 4.9648C10.7658 5.95184 9.33802 5.95022 9.19935 4.9648L7.86063 4.9648C6.92507 4.9648 6.0994 5.78383 6.09153 6.71898L6.03098 14.2458C6.02857 14.4768 6.07221 14.7061 6.15936 14.9201C6.24651 15.1341 6.375 14.7797 6.53815 14.9433C6.70025 15.1079 6.83934 14.8545 7.05254 14.9433C7.26575 15.0322 7.5584 14.944 7.78938 14.9433L10.0059 14.9433H12.2104C12.6807 14.9433 13.1443 15.2784 13.4794 14.9433C13.8107 14.6119 13.9953 14.7198 13.999 14.2557L14.0587 6.72893C14.0613 6.49783 14.0177 6.26855 13.9305 6.0545C13.8434 5.84045 13.7144 5.64594 13.5511 5.48235C13.389 5.31787 13.1956 5.18738 12.9824 5.09852C12.7693 5.00965 11.1234 4.9642 10.8924 4.9648ZM12.8859 6.71981L12.8266 14.2462C12.8233 14.5589 12.5422 14.8375 12.2303 14.8375L11.1728 14.8375L10.8119 14.8371C10.8119 14.8371 10.3063 14.8381 10.0059 14.8371C9.70538 14.8378 9.19935 14.8371 9.19935 14.8371L8.83849 14.8371L7.78142 14.8375C7.62674 14.8371 7.4816 14.7766 7.37253 14.6667C7.26346 14.5568 7.20333 14.4104 7.20499 14.2561L7.26554 6.72935C7.26678 6.57383 7.32899 6.42703 7.44178 6.31423C7.555 6.20102 7.70429 6.13799 7.86187 6.13799L8.91935 6.13799C8.93345 6.43808 9.06244 6.72126 9.27961 6.92885C9.49677 7.13645 9.78547 7.25255 10.0859 7.25311C10.3864 7.25248 10.6751 7.13638 10.8924 6.92882C11.1097 6.72126 11.2389 6.43813 11.2533 6.13799L12.3099 6.13799C12.465 6.13799 12.6098 6.19895 12.7188 6.30884C12.8279 6.41874 12.8876 6.56471 12.8859 6.71981Z" fill="#555555"></path>
</g>
<path d="M5.21094 14.5747L14.7899 14.5747" stroke="#555555" stroke-width="1.28947" stroke-linecap="round"></path>
<defs>
<clippath id="clip0_8928_406905">
<rect width="14.0753" height="14.0753" fill="white" transform="translate(0.0527344 10.5278) rotate(-45)"></rect>
</clippath>
</defs>
</symbol><symbol viewBox="0 0 16 16" id="font-icon-ic_tw">
<path d="M12.7715 5.48947C12.7788 5.59797 12.7788 5.70646 12.7788 5.81595C12.7788 9.15224 10.3023 13 5.7738 13V12.998C4.43608 13 3.12614 12.607 2 11.8661C2.19452 11.8901 2.39001 11.9021 2.58598 11.9026C3.69458 11.9036 4.77148 11.5221 5.64363 10.8196C4.59013 10.7991 3.6663 10.0947 3.34357 9.06625C3.71261 9.13924 4.09287 9.12424 4.45509 9.02275C3.30652 8.78477 2.48019 7.74983 2.48019 6.54791C2.48019 6.53691 2.48019 6.52641 2.48019 6.51591C2.82243 6.7114 3.20561 6.81989 3.59756 6.83189C2.51578 6.09044 2.18233 4.61453 2.83559 3.4606C4.08556 5.038 5.9298 5.99694 7.90957 6.09844C7.71115 5.22149 7.98221 4.30255 8.62182 3.68609C9.61341 2.73015 11.1729 2.77915 12.1051 3.79558C12.6564 3.68409 13.1849 3.4766 13.6685 3.18262C13.4847 3.76708 13.1001 4.26355 12.5862 4.57903C13.0742 4.52004 13.551 4.38604 14 4.18156C13.6695 4.68952 13.2531 5.132 12.7715 5.48947Z" fill="#555555"></path>
</symbol><symbol viewBox="0 0 16 16" id="font-icon-ic_update">
<path fill-rule="evenodd" clip-rule="evenodd" d="M12.6665 13.9998H3.33331C2.97969 13.9998 2.64056 13.8593 2.39052 13.6092C2.14047 13.3592 2 13.0201 2 12.6665V3.33331C2 2.97969 2.14047 2.64056 2.39052 2.39052C2.64056 2.14047 2.97969 2 3.33331 2H10.6665L13.9998 5.33327V12.6665C13.9998 13.0201 13.8593 13.3592 13.6092 13.6092C13.3592 13.8593 13.0201 13.9998 12.6665 13.9998Z" stroke="white" stroke-width="1.35942" stroke-linecap="round" stroke-linejoin="round"></path>
<path d="M11.3335 13.9992V8.66602H4.66699V13.9992" stroke="white" stroke-width="1.35942" stroke-linecap="round" stroke-linejoin="round"></path>
<path d="M4.66699 1.99951V5.33278H10.0002" stroke="white" stroke-width="1.35942" stroke-linecap="round" stroke-linejoin="round"></path>
</symbol><symbol viewBox="0 0 96 96" id="font-icon-ic_uploadImage">
<path d="M67.4768 60.4226L70.9981 63.9457V58.9645V57.5166C70.9981 57.0526 71.1823 56.6079 71.5098 56.2802C71.8373 55.9525 72.2813 55.7686 72.744 55.7686C73.2067 55.7686 73.6507 55.9525 73.9782 56.2802C74.3058 56.6079 74.49 57.0526 74.49 57.5166V76.5687C74.49 79.0538 73.5033 81.4369 71.7473 83.1938C69.9913 84.9507 67.6099 85.9375 65.1271 85.9375H19.4254C16.9426 85.9375 14.5612 84.9507 12.8052 83.1938C11.0492 81.4369 10.0625 79.0538 10.0625 76.5687V30.8436C10.0625 28.3585 11.0492 25.9754 12.8052 24.2185C14.5612 22.4616 16.9426 21.4748 19.4254 21.4748H46.0847C46.5474 21.4748 46.9914 21.6587 47.3189 21.9864C47.6465 22.3141 47.8307 22.7588 47.8307 23.2227C47.8307 23.6866 47.6465 24.1313 47.3189 24.4591C46.9914 24.7867 46.5474 24.9706 46.0847 24.9706H19.4254C17.868 24.9706 16.3746 25.5897 15.2736 26.6912C14.1727 27.7926 13.5544 29.2863 13.5544 30.8436V52.182V57.1631L17.0757 53.64L22.6933 48.0195C24.3259 46.4731 26.4887 45.6111 28.7371 45.6111C30.9855 45.6111 33.1483 46.4731 34.7809 48.0195L44.207 57.4504L45.6658 58.91L47.1246 57.4504L49.7847 54.7889C49.7856 54.788 49.7865 54.7871 49.7874 54.7863C51.3911 53.1958 53.5576 52.3035 55.8154 52.3035C58.0731 52.3035 60.2396 53.1958 61.8434 54.7863C61.8442 54.7871 61.8451 54.788 61.846 54.7889L67.4768 60.4226ZM14.1582 61.5075L13.5544 62.1115V62.9655V76.5687C13.5544 78.126 14.1727 79.6197 15.2736 80.7211C16.3746 81.8226 17.868 82.4417 19.4254 82.4417H59.262H64.2395L60.7208 78.9211L44.3444 62.5363L32.2715 50.4572L32.254 50.4396L32.236 50.4225C31.293 49.5234 30.0401 49.0217 28.7371 49.0217C27.4341 49.0217 26.1813 49.5234 25.2383 50.4225L25.2203 50.4396L25.2027 50.4572L14.1582 61.5075ZM70.998 76.5842L70.9981 76.5765V76.5687V69.7481V68.8982L70.3994 68.2951L59.4027 57.2166C59.4008 57.2147 59.3989 57.2128 59.397 57.2109C58.9331 56.7387 58.38 56.3634 57.7698 56.1069C57.1571 55.8493 56.4991 55.7166 55.8344 55.7166C55.1697 55.7166 54.5118 55.8493 53.899 56.1069C53.29 56.3629 52.7379 56.7372 52.2745 57.2081L49.615 59.869L48.161 61.3238L49.6118 62.7818L66.788 80.0431L68.4636 81.7269L69.8956 79.8316C70.6027 78.8958 70.9892 77.757 70.998 76.5842ZM85.4147 21.9754L85.4207 21.9813C85.5844 22.1438 85.7144 22.3371 85.8031 22.5501C85.8918 22.7632 85.9375 22.9918 85.9375 23.2227C85.9375 23.4536 85.8918 23.6822 85.8031 23.8953C85.7144 24.1083 85.5844 24.3017 85.4207 24.4641L85.4147 24.4701L85.4087 24.4761C85.2463 24.6399 85.0532 24.7698 84.8406 24.8584C84.6279 24.9471 84.3998 24.9927 84.1694 24.9927C83.9391 24.9927 83.711 24.9471 83.4983 24.8585C83.2856 24.7698 83.0925 24.6399 82.9302 24.4761L82.9298 24.4757L78.0169 19.5222L74.49 15.9661V20.9746V42.2749C74.49 42.7388 74.3058 43.1835 73.9782 43.5112C73.6507 43.8389 73.2067 44.0228 72.744 44.0228C72.2813 44.0228 71.8373 43.8389 71.5098 43.5112C71.1823 43.1835 70.9981 42.7388 70.9981 42.2749V20.9746V15.9661L67.4712 19.5222L62.5638 24.4701C62.563 24.471 62.5621 24.4718 62.5612 24.4727C62.2311 24.8017 61.7842 24.9862 61.3186 24.9862C60.8518 24.9862 60.4038 24.8007 60.0734 24.4701L58.6146 25.9281L60.0734 24.4701C59.7429 24.1394 59.5571 23.6908 59.5571 23.2227C59.5571 22.991 59.6027 22.7615 59.6913 22.5475C59.7799 22.3335 59.9097 22.1391 60.0734 21.9753L58.6146 20.5173L60.0734 21.9753L71.4798 10.563C71.6431 10.4099 71.8342 10.2896 72.0427 10.2087L72.0619 10.2013L72.0809 10.1935C72.5058 10.0188 72.9823 10.0188 73.4072 10.1935L73.4261 10.2013L73.4453 10.2087C73.6539 10.2896 73.8449 10.4099 74.0082 10.563L85.4147 21.9754Z" fill="#A5A5A5" stroke="#A5A5A5" stroke-width="4.125"></path>
<path d="M49.8852 42.8159C52.7483 42.8159 55.0693 40.4949 55.0693 37.6318C55.0693 34.7688 52.7483 32.4478 49.8852 32.4478C47.0221 32.4478 44.7011 34.7688 44.7011 37.6318C44.7011 40.4949 47.0221 42.8159 49.8852 42.8159Z" fill="#A5A5A5" stroke="#A5A5A5" stroke-width="5.5" stroke-linecap="round" stroke-linejoin="round"></path>
</symbol></svg>