<svg width="219" height="96" viewBox="0 0 219 96" fill="none" xmlns="http://www.w3.org/2000/svg">
<path d="M83.5781 18.2399V41.7599C83.5781 43.2719 84.3841 44.6399 85.7273 45.4079L106.462 57.1679C107.781 57.9119 109.417 57.9119 110.736 57.1679L131.471 45.4079C132.79 44.6639 133.62 43.2719 133.62 41.7599V18.2399C133.62 16.7279 132.814 15.3599 131.471 14.5919L110.736 2.83193C109.417 2.08793 107.781 2.08793 106.462 2.83193L85.7273 14.5919C84.4085 15.3359 83.6025 16.7279 83.6025 18.2399H83.5781Z" fill="#213147"/>
<path d="M113.108 34.5598L110.153 42.5278C110.079 42.7438 110.079 42.9838 110.153 43.2238L115.233 56.9278L121.118 53.5918L114.06 34.5598C113.889 34.1278 113.279 34.1278 113.108 34.5598Z" fill="#12AAFF"/>
<path d="M119.041 21.1677C118.87 20.7358 118.259 20.7358 118.088 21.1677L115.133 29.1357C115.06 29.3517 115.06 29.5917 115.133 29.8317L123.461 52.2717L129.347 48.9357L119.041 21.1917V21.1677Z" fill="#12AAFF"/>
<path d="M108.588 3.72C108.734 3.72 108.881 3.768 109.003 3.84L131.423 16.56C131.692 16.704 131.838 16.992 131.838 17.28V42.72C131.838 43.008 131.667 43.296 131.423 43.44L109.003 56.16C108.881 56.232 108.734 56.28 108.588 56.28C108.441 56.28 108.295 56.232 108.173 56.16L85.7525 43.44C85.4838 43.296 85.3373 43.008 85.3373 42.72V17.256C85.3373 16.968 85.5083 16.68 85.7525 16.536L108.173 3.816C108.295 3.744 108.441 3.696 108.588 3.696V3.72ZM108.588 0C107.782 0 107 0.192 106.268 0.6L83.8475 13.32C82.4066 14.136 81.5273 15.624 81.5273 17.256V42.696C81.5273 44.328 82.4066 45.816 83.8475 46.632L106.268 59.352C106.976 59.76 107.782 59.952 108.588 59.952C109.394 59.952 110.175 59.76 110.908 59.352L133.328 46.632C134.769 45.816 135.648 44.328 135.648 42.696V17.256C135.648 15.624 134.769 14.136 133.328 13.32L110.883 0.6C110.175 0.192 109.369 0 108.563 0H108.588Z" fill="#9DCCED"/>
<path d="M93.7383 52.2955L95.8142 46.7275L99.9661 50.1115L96.0829 53.6155L93.7383 52.2955Z" fill="#213147"/>
<path d="M106.682 15.4561H100.991C100.576 15.4561 100.185 15.7201 100.039 16.1041L87.8516 48.9361L93.7374 52.2721L107.17 16.1041C107.292 15.7681 107.048 15.4321 106.706 15.4321L106.682 15.4561Z" fill="white"/>
<path d="M116.646 15.4561H110.955C110.54 15.4561 110.15 15.7201 110.003 16.1041L96.082 53.5921L101.968 56.9281L117.11 16.1041C117.232 15.7681 116.988 15.4321 116.646 15.4321V15.4561Z" fill="white"/>
<path d="M13.9812 76.1675C14.6362 76.1675 15.2999 76.3327 15.7889 76.6633C16.2867 76.9938 16.7757 77.481 17.2735 78.2986L26.6525 95.339C26.8185 95.5043 26.8185 95.6696 26.6525 95.8348C26.6525 96.0001 26.4866 96.0001 26.3207 96.0001H22.7053C22.3735 96.0001 22.2075 95.8348 22.0504 95.6696L20.0767 92.0684H6.74173L4.76812 95.6696C4.60219 96.0001 4.43627 96.0001 4.11315 96.0001H0.49777C0.165923 96.0001 0.165923 96.0001 0 95.8348C0 95.6696 0 95.5043 0 95.339L9.37904 78.2986C9.87681 77.481 10.3658 76.8199 10.6977 76.6633C11.1955 76.3327 11.6845 76.1675 12.3395 76.1675H13.9812ZM8.54942 88.6151H18.2516L13.8066 80.2558C13.6407 80.0905 13.6407 80.0905 13.4747 80.0905H13.3088C13.1429 80.0905 13.1429 80.0905 12.977 80.2558L8.54942 88.6151Z" fill="#2D364D"/>
<path d="M47.3765 76.1653C49.5161 76.1653 51.1578 76.6611 51.9787 77.644C52.9655 78.627 53.4633 80.1057 53.4633 81.9063V83.5416C53.4633 85.1769 53.1315 86.4904 52.4765 87.3081C51.8215 88.291 50.6688 88.7868 49.1842 89.1087L53.9523 95.1716C54.1183 95.3368 54.1183 95.3368 54.1183 95.6674C54.1183 95.8326 53.9523 95.9979 53.6205 95.9979H50.0051C49.6733 95.9979 49.6733 95.9979 49.5073 95.8326C49.3414 95.8326 49.3414 95.6674 49.1755 95.5021L44.7305 89.6045H35.5261V95.1716C35.5261 95.5021 35.3602 95.8239 34.8712 95.8239H31.7448C31.247 95.8239 31.0898 95.6587 31.0898 95.1716V76.8177C31.0898 76.1653 31.4217 76 31.9107 76H47.0447L47.3765 76.1653ZM35.692 86.3251H46.5469C47.5337 86.3251 48.1887 86.1599 48.5205 85.6728C48.8524 85.3422 49.1755 84.6898 49.1755 83.7069V82.5587C49.1755 81.741 49.0096 81.0799 48.5205 80.5928C48.1887 80.2623 47.5337 79.9404 46.5469 79.9404H36.0239C35.692 79.9404 35.692 80.1057 35.692 80.271V86.1686V86.3251Z" fill="#2D364D"/>
<path d="M77.1448 76.1659C79.1184 76.1659 80.437 76.4964 81.2579 77.3141C82.0788 78.1317 82.5766 79.2799 82.5766 80.7587V82.0721C82.5766 83.7075 81.9216 84.8557 80.7689 85.6733C82.0876 86.491 82.7425 87.6392 82.7425 89.2745V90.9099C82.7425 91.7275 82.5766 92.3886 82.4107 92.8757C82.2447 93.5281 81.9129 94.0239 81.5898 94.3545C81.2579 94.8503 80.7689 95.1721 80.1052 95.3374C79.4502 95.5027 78.6206 95.6679 77.7997 95.6679H61.024C60.369 95.6679 60.2031 95.3374 60.2031 94.8503V76.8269C60.2031 76.1745 60.535 76.0093 61.024 76.0093H77.3107L77.1448 76.1659ZM64.3075 84.3599H75.9833C76.9701 84.3599 77.6251 84.1946 77.9569 83.864C78.2888 83.5335 78.4547 83.2117 78.4547 82.5506V81.5676C78.4547 80.9152 78.2888 80.5847 77.9569 80.2542C77.6251 79.9236 77.136 79.9236 76.3152 79.9236H64.6394C64.3075 79.9236 64.3075 80.0889 64.3075 80.2542V84.1859V84.3599ZM64.3075 87.4739V91.7362C64.3075 92.0668 64.4735 92.0667 64.6394 92.0667H76.3152C77.136 92.0667 77.6338 91.9015 77.9569 91.7362C78.2888 91.4057 78.4547 91.0838 78.4547 90.4227V89.4398C78.4547 88.7874 78.2888 88.4569 77.9569 88.1263C77.6251 87.7958 76.9701 87.6305 75.9833 87.6305H64.3075V87.4739Z" fill="#2D364D"/>
<path d="M93.2579 76.1675C93.5897 76.1675 93.9128 76.3328 93.9128 76.8199V95.3303C93.9128 95.6609 93.7469 95.9827 93.2579 95.9827H90.1315C89.6338 95.9827 89.4766 95.8174 89.4766 95.3303V76.8199C89.4766 76.4893 89.6425 76.1675 90.1315 76.1675H93.2579Z" fill="#2D364D"/>
<path d="M122.87 76.1675C123.368 76.1675 123.525 76.3328 123.525 76.8199V79.6034C123.525 80.0992 123.359 80.2558 122.87 80.2558H113.989V95.3303C113.989 95.6609 113.823 95.9827 113.334 95.9827H110.208C109.876 95.9827 109.553 95.8174 109.553 95.3303V80.2558H100.663C100.165 80.2558 100.008 80.0905 100.008 79.6034V76.8199C100.008 76.4893 100.174 76.1675 100.663 76.1675H122.704H122.87Z" fill="#2D364D"/>
<path d="M145.237 76.1653C147.376 76.1653 149.018 76.6611 149.839 77.644C150.826 78.627 151.324 80.1057 151.324 81.9063V83.5416C151.324 85.1769 150.992 86.4904 150.337 87.3081C149.682 88.291 148.529 88.7868 147.045 89.1087L151.813 95.1716C151.979 95.3368 151.979 95.3368 151.979 95.6674C151.979 95.8326 151.813 95.9979 151.481 95.9979H147.865C147.534 95.9979 147.534 95.9979 147.368 95.8326C147.202 95.8326 147.202 95.6674 147.036 95.5021L142.591 89.6045H133.378V95.1716C133.378 95.5021 133.212 95.8239 132.723 95.8239H129.596C129.099 95.8239 128.941 95.6587 128.941 95.1716V76.8177C128.941 76.1653 129.273 76 129.762 76H144.896L145.237 76.1653ZM133.561 86.3251H144.416C145.403 86.3251 146.058 86.1599 146.39 85.6728C146.721 85.3422 147.045 84.6898 147.045 83.7069V82.5587C147.045 81.741 146.879 81.0799 146.39 80.5928C146.058 80.2623 145.403 79.9404 144.416 79.9404H133.893C133.561 79.9404 133.561 80.1057 133.561 80.271V86.1686V86.3251Z" fill="#2D364D"/>
<path d="M161.189 76.1675C161.521 76.1675 161.844 76.3328 161.844 76.8199V88.128C161.844 88.9456 161.844 89.4414 162.01 89.9285C162.175 90.4244 162.341 90.7462 162.665 91.0767C162.996 91.4073 163.319 91.5726 163.817 91.7291C164.315 91.8944 164.97 91.8944 165.625 91.8944H173.519C174.174 91.8944 174.838 91.8944 175.327 91.7291C175.825 91.5639 176.148 91.3986 176.48 91.0767C176.812 90.7462 176.978 90.4244 177.135 89.9285C177.301 89.4327 177.301 88.7803 177.301 88.128V76.8199C177.301 76.4893 177.467 76.1675 177.956 76.1675H181.082C181.414 76.1675 181.737 76.3328 181.737 76.8199V88.4498C181.737 89.7633 181.571 90.9115 181.239 91.8944C180.907 92.8773 180.418 93.695 179.921 94.1908C179.266 94.8432 178.436 95.1737 177.449 95.5043C176.462 95.8348 175.144 95.8348 173.834 95.8348H165.634C164.149 95.8348 163.005 95.6696 162.018 95.5043C161.031 95.1737 160.211 94.8519 159.547 94.1908C158.883 93.5297 158.394 92.8773 158.228 91.8944C157.896 90.9115 157.73 89.7633 157.73 88.4498V76.8199C157.73 76.4893 157.896 76.1675 158.385 76.1675H161.346H161.189Z" fill="#2D364D"/>
<path d="M193.764 76.1675C194.096 76.1675 194.585 76.1675 194.917 76.3327C195.249 76.3327 195.572 76.498 195.738 76.6633C195.904 76.8286 196.236 76.9938 196.393 77.3157C196.559 77.6462 196.725 77.9681 196.891 78.4639L202.812 92.0597C202.978 92.225 202.978 92.3902 203.143 92.3902H203.475C203.641 92.3902 203.807 92.225 203.807 92.0597L209.728 78.4639C209.894 77.9681 210.06 77.6462 210.226 77.3157C210.392 76.9851 210.558 76.8199 210.881 76.6633C211.047 76.498 211.378 76.3327 211.702 76.3327C212.033 76.3327 212.357 76.1675 212.688 76.1675H215.649C216.636 76.1675 217.291 76.3328 217.622 76.8199C217.954 77.3157 218.12 77.9681 218.12 79.1163V95.339C218.12 95.6696 217.954 95.9914 217.465 95.9914H214.505C214.173 95.9914 213.85 95.8261 213.85 95.339V80.595C213.85 80.4297 213.684 80.2645 213.684 80.2645H213.352C213.186 80.2645 213.02 80.4298 213.02 80.4298L207.265 93.0426C207.099 93.5384 206.768 94.0255 206.61 94.3561C206.444 94.6866 206.113 95.0085 205.789 95.1738C205.458 95.339 205.135 95.5043 204.803 95.6696C204.471 95.8348 203.982 95.8348 203.484 95.8348H202.165C201.668 95.8348 201.344 95.8348 200.847 95.6696C200.515 95.5043 200.192 95.339 199.86 95.1738C199.528 95.0085 199.362 94.6779 199.039 94.3561C198.873 94.0255 198.541 93.5384 198.384 93.0426L192.629 80.4298C192.629 80.2645 192.463 80.2645 192.297 80.2645H191.965C191.8 80.2645 191.8 80.4297 191.8 80.595V95.339C191.8 95.6696 191.634 95.9914 191.145 95.9914H188.167C187.669 95.9914 187.512 95.8261 187.512 95.339V79.1163C187.512 77.9681 187.678 77.3157 188.009 76.8199C188.341 76.3241 188.996 76.1675 189.983 76.1675H193.109H193.764Z" fill="#2D364D"/>
</svg>
