<svg width="44" height="44" viewBox="0 0 44 44" fill="none" xmlns="http://www.w3.org/2000/svg">
<circle cx="22" cy="22" r="22" fill="#141314"/>
<path d="M12.0462 21.273C17.5345 19.0289 21.1942 17.5494 23.0254 16.8346C28.2537 14.7936 29.3401 14.4391 30.0482 14.4274C30.204 14.4248 30.5522 14.461 30.7778 14.6328C30.9682 14.7778 31.0206 14.9738 31.0457 15.1113C31.0708 15.2488 31.102 15.5621 31.0772 15.8069C30.7939 18.6008 29.5679 25.3808 28.9442 28.51C28.6803 29.8341 28.1607 30.2781 27.6576 30.3215C26.5643 30.416 25.7341 29.6434 24.6752 28.992C23.0182 27.9726 22.0821 27.338 20.4737 26.3433C18.615 25.1937 19.8199 24.5618 20.8792 23.5292C21.1565 23.259 25.9735 19.1469 26.0668 18.7739C26.0784 18.7272 26.0893 18.5533 25.9792 18.4615C25.8691 18.3696 25.7066 18.401 25.5894 18.426C25.4232 18.4614 22.7761 20.1034 17.6482 23.3521C16.8969 23.8363 16.2163 24.0723 15.6066 24.0599C14.9344 24.0463 13.6413 23.7032 12.6801 23.4099C11.501 23.0503 10.564 22.8601 10.6456 22.2492C10.6881 21.931 11.1549 21.6056 12.0462 21.273Z" fill="white"/>
</svg>
