<svg width="44" height="44" viewBox="0 0 44 44" fill="none" xmlns="http://www.w3.org/2000/svg">
<circle cx="22" cy="22" r="22" fill="#141314"/>
<path d="M31.5159 17.4463C31.5296 17.6439 31.5296 17.8415 31.5296 18.0408C31.5296 24.1161 26.9042 31.1228 18.4466 31.1228V31.1191C15.9482 31.1228 13.5017 30.4072 11.3984 29.0579C11.7617 29.1016 12.1268 29.1235 12.4929 29.1244C14.5633 29.1262 16.5746 28.4316 18.2035 27.1524C16.2359 27.1151 14.5105 25.8323 13.9078 23.9595C14.597 24.0925 15.3072 24.0651 15.9837 23.8803C13.8386 23.447 12.2953 21.5624 12.2953 19.3737C12.2953 19.3537 12.2953 19.3346 12.2953 19.3154C12.9344 19.6714 13.6501 19.869 14.3821 19.8908C12.3617 18.5407 11.739 15.8531 12.959 13.7518C15.2936 16.6242 18.738 18.3704 22.4355 18.5552C22.0649 16.9584 22.5712 15.285 23.7657 14.1624C25.6177 12.4217 28.5304 12.5109 30.2713 14.3618C31.301 14.1588 32.288 13.781 33.1912 13.2456C32.848 14.3099 32.1296 15.214 31.1699 15.7885C32.0813 15.681 32.9718 15.437 33.8104 15.0647C33.193 15.9897 32.4155 16.7954 31.5159 17.4463Z" fill="white"/>
</svg>
